<?xml version="1.0" encoding="UTF-8" standalone="no"?>
<svg
   xmlns:dc="http://purl.org/dc/elements/1.1/"
   xmlns:cc="http://creativecommons.org/ns#"
   xmlns:rdf="http://www.w3.org/1999/02/22-rdf-syntax-ns#"
   xmlns:svg="http://www.w3.org/2000/svg"
   xmlns="http://www.w3.org/2000/svg"
   xmlns:xlink="http://www.w3.org/1999/xlink"
   xmlns:sodipodi="http://sodipodi.sourceforge.net/DTD/sodipodi-0.dtd"
   xmlns:inkscape="http://www.inkscape.org/namespaces/inkscape"
   version="1.1"
   preserveAspectRatio="none"
   x="0px"
   y="0px"
   width="550px"
   height="400px"
   viewBox="0 0 550 400"
   id="svg116"
   sodipodi:docname="logo.svg"
   inkscape:version="0.92.1 r">
  <metadata
     id="metadata120">
    <rdf:RDF>
      <cc:Work
         rdf:about="">
        <dc:format>image/svg+xml</dc:format>
        <dc:type
           rdf:resource="http://purl.org/dc/dcmitype/StillImage" />
      </cc:Work>
    </rdf:RDF>
  </metadata>
  <sodipodi:namedview
     pagecolor="#ffffff"
     bordercolor="#666666"
     borderopacity="1"
     objecttolerance="10"
     gridtolerance="10"
     guidetolerance="10"
     inkscape:pageopacity="0"
     inkscape:pageshadow="2"
     inkscape:window-width="1366"
     inkscape:window-height="694"
     id="namedview118"
     showgrid="false"
     inkscape:zoom="0.52727273"
     inkscape:cx="-12.327585"
     inkscape:cy="200"
     inkscape:window-x="0"
     inkscape:window-y="0"
     inkscape:window-maximized="1"
     inkscape:current-layer="svg116" />
  <defs
     id="defs50">
    <g
       id="Layer0_0_MEMBER_0_FILL">
      <path
         fill="#000000"
         stroke="none"
         d=" M 209.9 143.65 Q 209.9 143.1 209.5 142.7 L 178.25 111.5 Q 177.9 111.1 177.35 111.1 176.8 111.1 176.4 111.5 176 111.9 176 112.45 176 113 176.4 113.4 L 207.6 144.6 Q 208 145 208.55 145 209.1 145 209.5 144.6 209.9 144.25 209.9 143.65 Z"
         id="path2" />
    </g>
    <g
       id="Layer0_0_MEMBER_1_FILL">
      <path
         fill="#000000"
         stroke="none"
         d=" M 212.75 140.8 Q 212.75 140.2 212.4 139.85 L 181.15 108.6 Q 180.75 108.25 180.2 108.25 179.65 108.25 179.25 108.6 178.85 109 178.85 109.55 178.85 110.15 179.25 110.5 L 210.5 141.75 Q 210.9 142.15 211.45 142.15 212 142.15 212.4 141.75 212.75 141.35 212.75 140.8 Z"
         id="path5" />
    </g>
    <g
       id="Layer0_0_MEMBER_2_FILL">
      <path
         fill="#000000"
         stroke="none"
         d=" M 215.6 137.95 Q 215.6 137.4 215.2 137 L 184 105.75 Q 183.6 105.4 183.05 105.4 182.5 105.4 182.1 105.75 181.7 106.15 181.7 106.7 181.7 107.3 182.1 107.65 L 213.3 138.9 Q 213.7 139.3 214.25 139.3 214.85 139.3 215.2 138.9 215.6 138.5 215.6 137.95 Z"
         id="path8" />
    </g>
    <g
       id="Layer0_0_MEMBER_3_FILL">
      <path
         fill="#000000"
         stroke="none"
         d=" M 218.45 135.1 Q 218.45 134.55 218.05 134.15 L 186.85 102.95 Q 186.45 102.55 185.9 102.55 185.35 102.55 184.95 102.95 184.55 103.35 184.55 103.9 184.55 104.45 184.95 104.85 L 216.15 136.05 Q 216.55 136.45 217.1 136.45 217.7 136.45 218.05 136.05 218.45 135.65 218.45 135.1 Z"
         id="path11" />
    </g>
    <g
       id="Layer0_0_MEMBER_4_FILL">
      <path
         fill="#000000"
         stroke="none"
         d=" M 185.9 102.55 Q 185.35 102.55 184.95 102.95 L 153.7 134.15 Q 153.35 134.55 153.35 135.1 153.35 135.65 153.7 136.05 154.1 136.45 154.65 136.45 155.25 136.45 155.6 136.05 L 186.85 104.85 Q 187.25 104.45 187.25 103.9 187.25 103.35 186.85 102.95 186.45 102.55 185.9 102.55 Z"
         id="path14" />
    </g>
    <g
       id="Layer0_0_MEMBER_5_FILL">
      <path
         fill="#000000"
         stroke="none"
         d=" M 188.8 105.45 Q 188.25 105.45 187.85 105.8 L 156.6 137.05 Q 156.2 137.45 156.2 138 156.2 138.55 156.6 138.95 157 139.35 157.55 139.35 158.1 139.35 158.5 138.95 L 189.7 107.7 Q 190.1 107.3 190.1 106.75 190.1 106.2 189.7 105.8 189.35 105.45 188.8 105.45 Z"
         id="path17" />
    </g>
    <g
       id="Layer0_0_MEMBER_6_FILL">
      <path
         fill="#000000"
         stroke="none"
         d=" M 191.6 108.25 Q 191.05 108.25 190.65 108.65 L 159.45 139.9 Q 159.05 140.3 159.05 140.85 159.05 141.4 159.45 141.75 159.85 142.15 160.4 142.15 160.95 142.15 161.35 141.75 L 192.55 110.55 Q 192.95 110.15 192.95 109.6 192.95 109.05 192.55 108.65 192.2 108.25 191.6 108.25 Z"
         id="path20" />
    </g>
    <g
       id="Layer0_0_MEMBER_7_FILL">
      <path
         fill="#000000"
         stroke="none"
         d=" M 194.45 111.1 Q 193.9 111.1 193.5 111.5 L 162.3 142.7 Q 161.9 143.1 161.9 143.65 161.9 144.25 162.3 144.6 162.7 145 163.25 145 163.8 145 164.2 144.6 L 195.4 113.4 Q 195.8 113 195.8 112.45 195.8 111.9 195.4 111.5 195 111.1 194.45 111.1 Z"
         id="path23" />
    </g>
    <g
       id="Layer0_0_MEMBER_8_FILL">
      <path
         fill="#000000"
         stroke="none"
         d=" M 208.55 125.2 Q 208 125.2 207.6 125.6 L 176.4 156.8 Q 176 157.2 176 157.75 176 158.3 176.4 158.7 176.8 159.1 177.35 159.1 177.9 159.1 178.25 158.7 L 209.5 127.5 Q 209.9 127.1 209.9 126.55 209.9 126 209.5 125.6 209.1 125.2 208.55 125.2 Z"
         id="path26" />
    </g>
    <g
       id="Layer0_0_MEMBER_9_FILL">
      <path
         fill="#000000"
         stroke="none"
         d=" M 211.45 128.1 Q 210.9 128.1 210.5 128.45 L 179.25 159.7 Q 178.85 160.1 178.85 160.65 178.85 161.2 179.25 161.6 179.65 162 180.2 162 180.75 162 181.15 161.6 L 212.4 130.35 Q 212.8 130 212.8 129.4 212.8 128.85 212.4 128.45 212 128.1 211.45 128.1 Z"
         id="path29" />
    </g>
    <g
       id="Layer0_0_MEMBER_10_FILL">
      <path
         fill="#000000"
         stroke="none"
         d=" M 214.25 130.95 Q 213.7 130.95 213.3 131.3 L 182.1 162.55 Q 181.7 162.95 181.7 163.5 181.7 164.05 182.1 164.45 182.5 164.8 183.05 164.8 183.6 164.8 184 164.45 L 215.2 133.2 Q 215.6 132.8 215.6 132.25 215.6 131.7 215.2 131.3 214.85 130.95 214.25 130.95 Z"
         id="path32" />
    </g>
    <g
       id="Layer0_0_MEMBER_11_FILL">
      <path
         fill="#000000"
         stroke="none"
         d=" M 217.1 133.75 Q 216.55 133.75 216.15 134.15 L 184.95 165.4 Q 184.55 165.8 184.55 166.35 184.55 166.9 184.95 167.25 185.35 167.65 185.9 167.65 186.45 167.65 186.85 167.25 L 218.05 136.05 Q 218.45 135.65 218.45 135.1 218.45 134.55 218.05 134.15 217.65 133.75 217.1 133.75 Z"
         id="path35" />
    </g>
    <g
       id="Layer0_0_MEMBER_12_FILL">
      <path
         fill="#000000"
         stroke="none"
         d=" M 163.25 125.2 Q 162.7 125.2 162.3 125.6 161.9 126 161.9 126.55 161.9 127.1 162.3 127.5 L 193.5 158.7 Q 193.9 159.1 194.45 159.1 195 159.1 195.4 158.7 195.8 158.3 195.8 157.75 195.8 157.2 195.4 156.8 L 164.2 125.6 Q 163.8 125.2 163.25 125.2 Z"
         id="path38" />
    </g>
    <g
       id="Layer0_0_MEMBER_13_FILL">
      <path
         fill="#000000"
         stroke="none"
         d=" M 192.9 160.65 Q 192.9 160.1 192.5 159.7 L 161.3 128.45 Q 160.9 128.1 160.35 128.1 159.8 128.1 159.4 128.45 159 128.85 159 129.4 159 130 159.4 130.35 L 190.65 161.6 Q 191.05 162 191.6 162 192.15 162 192.5 161.6 192.9 161.2 192.9 160.65 Z"
         id="path41" />
    </g>
    <g
       id="Layer0_0_MEMBER_14_FILL">
      <path
         fill="#000000"
         stroke="none"
         d=" M 190.1 163.5 Q 190.1 162.95 189.7 162.55 L 158.45 131.3 Q 158.05 130.95 157.5 130.95 156.95 130.95 156.55 131.3 156.2 131.7 156.2 132.25 156.2 132.8 156.55 133.2 L 187.8 164.45 Q 188.2 164.85 188.75 164.85 189.3 164.85 189.7 164.45 190.1 164.05 190.1 163.5 Z"
         id="path44" />
    </g>
    <g
       id="Layer0_0_MEMBER_15_FILL">
      <path
         fill="#000000"
         stroke="none"
         d=" M 187.25 166.35 Q 187.25 165.8 186.85 165.4 L 155.6 134.15 Q 155.25 133.75 154.65 133.75 154.1 133.75 153.7 134.15 153.35 134.55 153.35 135.1 153.35 135.65 153.7 136.05 L 184.95 167.25 Q 185.35 167.65 185.9 167.65 186.45 167.65 186.85 167.25 187.25 166.9 187.25 166.35 Z"
         id="path47" />
    </g>
  </defs>
  <g
     transform="matrix(5.732061,0,0,5.732061,-792.71737,-570.34205)"
     id="g54"
     style="fill:#00ff00">
    <use
       xlink:href="#Layer0_0_MEMBER_0_FILL"
       id="use52"
       x="0"
       y="0"
       width="100%"
       height="100%"
       style="fill:#00ff00" />
  </g>
  <g
     transform="matrix(5.732061,0,0,5.732061,-792.71737,-570.34205)"
     id="g58"
     style="fill:#00ff00">
    <use
       xlink:href="#Layer0_0_MEMBER_1_FILL"
       id="use56"
       x="0"
       y="0"
       width="100%"
       height="100%"
       style="fill:#00ff00" />
  </g>
  <g
     transform="matrix(5.732061,0,0,5.732061,-792.71737,-570.34205)"
     id="g62"
     style="fill:#00ff00">
    <use
       xlink:href="#Layer0_0_MEMBER_2_FILL"
       id="use60"
       x="0"
       y="0"
       width="100%"
       height="100%"
       style="fill:#00ff00" />
  </g>
  <g
     transform="matrix(5.732061,0,0,5.732061,-792.71737,-570.34205)"
     id="g66"
     style="fill:#00ff00">
    <use
       xlink:href="#Layer0_0_MEMBER_3_FILL"
       id="use64"
       x="0"
       y="0"
       width="100%"
       height="100%"
       style="fill:#00ff00" />
  </g>
  <g
     transform="matrix(5.732061,0,0,5.732061,-792.71737,-570.34205)"
     id="g70"
     style="fill:#00ff00">
    <use
       xlink:href="#Layer0_0_MEMBER_4_FILL"
       id="use68"
       x="0"
       y="0"
       width="100%"
       height="100%"
       style="fill:#00ff00" />
  </g>
  <g
     transform="matrix(5.732061,0,0,5.732061,-792.71737,-570.34205)"
     id="g74"
     style="fill:#00ff00">
    <use
       xlink:href="#Layer0_0_MEMBER_5_FILL"
       id="use72"
       x="0"
       y="0"
       width="100%"
       height="100%"
       style="fill:#00ff00" />
  </g>
  <g
     transform="matrix(5.732061,0,0,5.732061,-792.71737,-570.34205)"
     id="g78"
     style="fill:#00ff00">
    <use
       xlink:href="#Layer0_0_MEMBER_6_FILL"
       id="use76"
       x="0"
       y="0"
       width="100%"
       height="100%"
       style="fill:#00ff00" />
  </g>
  <g
     transform="matrix(5.732061,0,0,5.732061,-792.71737,-570.34205)"
     id="g82"
     style="fill:#00ff00">
    <use
       xlink:href="#Layer0_0_MEMBER_7_FILL"
       id="use80"
       x="0"
       y="0"
       width="100%"
       height="100%"
       style="fill:#00ff00" />
  </g>
  <g
     transform="matrix(5.732061,0,0,5.732061,-792.71737,-570.34205)"
     id="g86"
     style="fill:#00ff00">
    <use
       xlink:href="#Layer0_0_MEMBER_8_FILL"
       id="use84"
       x="0"
       y="0"
       width="100%"
       height="100%"
       style="fill:#00ff00" />
  </g>
  <g
     transform="matrix(5.732061,0,0,5.732061,-792.71737,-570.34205)"
     id="g90"
     style="fill:#00ff00">
    <use
       xlink:href="#Layer0_0_MEMBER_9_FILL"
       id="use88"
       x="0"
       y="0"
       width="100%"
       height="100%"
       style="fill:#00ff00" />
  </g>
  <g
     transform="matrix(5.732061,0,0,5.732061,-792.71737,-570.34205)"
     id="g94"
     style="fill:#00ff00">
    <use
       xlink:href="#Layer0_0_MEMBER_10_FILL"
       id="use92"
       x="0"
       y="0"
       width="100%"
       height="100%"
       style="fill:#00ff00" />
  </g>
  <g
     transform="matrix(5.732061,0,0,5.732061,-792.71737,-570.34205)"
     id="g98"
     style="fill:#00ff00">
    <use
       xlink:href="#Layer0_0_MEMBER_11_FILL"
       id="use96"
       x="0"
       y="0"
       width="100%"
       height="100%"
       style="fill:#00ff00" />
  </g>
  <g
     transform="matrix(5.732061,0,0,5.732061,-792.71737,-570.34205)"
     id="g102"
     style="fill:#00ff00">
    <use
       xlink:href="#Layer0_0_MEMBER_12_FILL"
       id="use100"
       x="0"
       y="0"
       width="100%"
       height="100%"
       style="fill:#00ff00" />
  </g>
  <g
     transform="matrix(5.732061,0,0,5.732061,-792.71737,-570.34205)"
     id="g106"
     style="fill:#00ff00">
    <use
       xlink:href="#Layer0_0_MEMBER_13_FILL"
       id="use104"
       x="0"
       y="0"
       width="100%"
       height="100%"
       style="fill:#00ff00" />
  </g>
  <g
     transform="matrix(5.732061,0,0,5.732061,-792.71737,-570.34205)"
     id="g110"
     style="fill:#00ff00">
    <use
       xlink:href="#Layer0_0_MEMBER_14_FILL"
       id="use108"
       x="0"
       y="0"
       width="100%"
       height="100%"
       style="fill:#00ff00" />
  </g>
  <g
     transform="matrix(5.732061,0,0,5.732061,-792.71737,-570.34205)"
     id="g114"
     style="fill:#00ff00">
    <use
       xlink:href="#Layer0_0_MEMBER_15_FILL"
       id="use112"
       x="0"
       y="0"
       width="100%"
       height="100%"
       style="fill:#00ff00" />
  </g>
  <path
     style="fill:#333333;stroke-width:1.89655173"
     d="m 178.1737,298.5186 c -50.32571,-50.33373 -91.501285,-92.79608 -91.501285,-94.36078 0,-3.85252 182.228665,-185.847476 186.086145,-185.847476 4.09306,0 185.63799,181.691846 185.63799,185.788226 0,4.09112 -181.5916,185.93591 -185.67702,185.93591 -1.6745,0 -44.22012,-41.18214 -94.54583,-91.51588 z m 97.70719,65.60121 c -2.63087,-2.63088 -3.65321,-2.74342 -6.1439,-0.67633 -2.71079,2.24975 -2.68741,2.81169 0.25219,6.0599 2.90931,3.21475 3.53646,3.28378 6.1439,0.67635 2.60745,-2.60746 2.58172,-3.22602 -0.25219,-6.05992 z m -16.85292,-16.85293 c -2.65565,-2.65565 -3.17601,-2.65565 -5.38001,0 -1.98895,2.39656 -1.98895,3.48347 0,5.88003 2.204,2.65565 2.72436,2.65565 5.38001,0 2.65565,-2.65565 2.65565,-3.22438 0,-5.88003 z m 34.12966,6.07272 c 1.61373,-1.94442 1.28017,-3.31887 -1.3924,-5.7375 -3.13759,-2.83948 -3.77191,-2.87036 -5.91517,-0.28788 -1.91713,2.30998 -1.92511,3.46572 -0.0396,5.7375 2.91644,3.51409 4.61456,3.58064 7.34728,0.28788 z m -49.28026,-17.10521 c 2.76802,-3.33525 -1.69377,-7.49597 -6.18871,-5.77109 -3.6725,1.40927 -3.88558,3.01218 -0.80935,6.08842 2.93316,2.93315 4.35386,2.86873 6.99806,-0.31733 z m 32.24139,0 c 1.63697,-1.97243 1.46556,-3.16303 -0.71606,-4.97361 -4.01754,-3.33425 -9.70748,1.05158 -6.45248,4.97361 1.18368,1.42627 2.79661,2.5932 3.58426,2.5932 0.78766,0 2.40058,-1.16693 3.58428,-2.5932 z m 33.991,-1.70157 c 0.81389,-4.22618 -4.51442,-6.33256 -8.22627,-3.25199 -2.20785,1.83237 -2.34753,2.95864 -0.62438,5.03491 2.88433,3.47541 8.03792,2.43725 8.85065,-1.78292 z M 194.39344,282.50954 c -31.27575,-31.27577 -35.75482,-35.0956 -38.4903,-32.82535 -2.75603,2.2873 0.81502,6.48405 32.54356,38.24558 31.71373,31.74672 35.95332,35.36233 38.4903,32.82535 2.53698,-2.53698 -1.04758,-6.74962 -32.54356,-38.24558 z m 64.63453,32.51596 c -2.65565,-2.65565 -3.17601,-2.65565 -5.38001,0 -1.98895,2.39656 -1.98895,3.48347 0,5.88003 2.204,2.65565 2.72436,2.65565 5.38001,0 2.65565,-2.65564 2.65565,-3.22438 0,-5.88003 z m 33.47935,-0.65858 c -2.60746,-2.60745 -3.22602,-2.58172 -6.05992,0.25219 -2.63088,2.63088 -2.74342,3.65321 -0.67633,6.1439 2.24975,2.71079 2.81169,2.68741 6.0599,-0.25219 3.21475,-2.90931 3.28378,-3.53646 0.67635,-6.1439 z m 97.07794,-64.12895 c -3.14392,-3.14392 -5.02435,-1.58996 -38.30631,31.65553 -33.29643,33.25994 -34.84629,35.13169 -31.84056,38.45299 3.01707,3.33381 4.74428,1.90647 38.3063,-31.65554 33.42144,-33.42145 34.98448,-35.30909 31.84057,-38.45298 z M 243.77431,304.1172 c 1.57856,-1.90205 -6.13061,-10.64021 -33.57211,-38.05319 -31.67668,-31.64378 -35.90506,-35.24216 -38.18463,-32.49544 -2.26238,2.726 1.53838,7.19508 32.36269,38.05319 19.20936,19.23044 35.47036,34.96445 36.13553,34.96445 0.66518,0 2.13151,-1.11106 3.25852,-2.46901 z m 32.55328,-0.37582 c 1.8854,-2.27179 1.87741,-3.42753 -0.0396,-5.73751 -2.14326,-2.58247 -2.77758,-2.5516 -5.91518,0.28788 -2.67256,2.41864 -3.00611,3.79309 -1.39239,5.73751 2.73273,3.29275 4.43084,3.2262 7.34728,-0.28788 z m 96.64365,-70.11743 c -2.53732,-2.53733 -6.69422,0.99589 -37.75316,32.08889 -30.83605,30.86989 -34.60263,35.30077 -32.33298,38.03552 2.28693,2.75557 6.43092,-0.76668 37.75315,-32.08892 31.31019,-31.31019 34.87031,-35.49817 32.33299,-38.03549 z m -111.81607,51.41307 c 0,-2.97841 -66.74882,-69.4853 -69.73804,-69.4853 -1.34748,0 -2.97269,1.3622 -3.61157,3.02709 -1.73362,4.51774 67.46086,73.46468 70.88033,70.62675 1.35811,-1.12712 2.46928,-3.00298 2.46928,-4.16854 z m 64.14975,-30.27261 c 30.87216,-30.90604 34.37287,-35.03654 31.62625,-37.31602 -2.72563,-2.26208 -7.1871,1.53088 -37.97348,32.28354 -26.87414,26.84466 -34.41439,35.41378 -32.83566,37.31604 1.12712,1.3581 2.59355,2.46927 3.25873,2.46927 0.66517,0 16.83104,-15.63878 35.92416,-34.75283 z m -17.20996,-86.13956 -35.54756,-35.54757 -35.09316,35.05469 -35.09315,35.05469 35.54831,35.58529 35.54831,35.58528 35.09241,-35.09241 35.0924,-35.09241 z M 147.12315,239.5465 c 1.61372,-1.94442 1.28017,-3.31887 -1.3924,-5.73751 -3.13759,-2.83948 -3.77192,-2.87035 -5.91518,-0.28788 -1.91711,2.30999 -1.92511,3.46573 -0.0397,5.73751 2.91643,3.51408 4.61455,3.58063 7.34729,0.28788 z m 259.82758,0 c 1.61374,-1.94442 1.28017,-3.31887 -1.39239,-5.73751 -3.1376,-2.83948 -3.77192,-2.87035 -5.91518,-0.28788 -1.91713,2.30999 -1.92511,3.46573 -0.0396,5.73751 2.91644,3.51408 4.61455,3.58063 7.34727,0.28788 z M 131.35386,222.95594 c 0.70654,-1.14321 -0.0537,-3.41687 -1.68944,-5.05261 -2.46104,-2.46104 -3.48522,-2.54982 -5.93745,-0.51464 -2.25823,1.87417 -2.45127,3.07647 -0.81124,5.0526 2.59087,3.1218 6.67295,3.37076 8.43813,0.51465 z m 32.24138,0 c 0.70654,-1.14321 -0.0537,-3.41687 -1.68944,-5.05261 -2.46104,-2.46104 -3.48522,-2.54982 -5.93745,-0.51464 -2.25823,1.87417 -2.45128,3.07647 -0.81124,5.0526 2.59087,3.1218 6.67295,3.37076 8.43813,0.51465 z m 226.31662,-0.51465 c 3.255,-3.92203 -2.43494,-8.30787 -6.45248,-4.97361 -2.18163,1.81058 -2.35304,3.00118 -0.71607,4.97361 1.1837,1.42626 2.79662,2.59319 3.58428,2.59319 0.78765,0 2.40058,-1.16693 3.58427,-2.59319 z m 33.51097,0.51465 c 0.70654,-1.14321 -0.0537,-3.41687 -1.68945,-5.05261 -2.46104,-2.46104 -3.48521,-2.54982 -5.93744,-0.51464 -2.25824,1.87417 -2.45127,3.07647 -0.81125,5.0526 2.59088,3.1218 6.67296,3.37076 8.43814,0.51465 z M 112.99349,201.2324 c -2.65565,-2.65565 -3.17602,-2.65565 -5.38001,0 -1.98896,2.39655 -1.98896,3.48348 0,5.88003 2.20399,2.65564 2.72436,2.65564 5.38001,0 2.65564,-2.65565 2.65564,-3.22438 0,-5.88003 z m 32.24138,0 c -2.65565,-2.65565 -3.17602,-2.65565 -5.38001,0 -1.98896,2.39655 -1.98896,3.48348 0,5.88003 2.20399,2.65564 2.72436,2.65564 5.38001,0 2.65564,-2.65565 2.65564,-3.22438 0,-5.88003 z m 34.44758,5.68965 c 2.01561,-2.42866 1.89108,-3.48892 -0.71606,-6.09605 -2.94369,-2.9437 -3.3684,-2.9437 -6.31209,0 -2.60713,2.60713 -2.73167,3.66739 -0.71605,6.09605 1.34199,1.61702 3.08444,2.94002 3.8721,2.94002 0.78766,0 2.5301,-1.323 3.8721,-2.94002 z m 193.13862,-5.68965 c -2.65565,-2.65565 -3.17601,-2.65565 -5.38001,0 -1.98895,2.39655 -1.98895,3.48348 0,5.88003 2.204,2.65564 2.72436,2.65564 5.38001,0 2.65564,-2.65565 2.65564,-3.22438 0,-5.88003 z m 32.24138,0 c -2.65565,-2.65565 -3.17601,-2.65565 -5.38001,0 -1.98895,2.39655 -1.98895,3.48348 0,5.88003 2.204,2.65564 2.72436,2.65564 5.38001,0 2.65564,-2.65565 2.65564,-3.22438 0,-5.88003 z m 34.44758,5.68965 c 2.01561,-2.42866 1.89109,-3.48892 -0.71605,-6.09605 -2.94369,-2.9437 -3.3684,-2.9437 -6.3121,0 -2.60713,2.60713 -2.73166,3.66739 -0.71604,6.09605 1.342,1.61702 3.08444,2.94002 3.87209,2.94002 0.78766,0 2.5301,-1.323 3.8721,-2.94002 z M 130.08427,190.19991 c 3.25499,-3.92203 -2.43495,-8.30786 -6.45248,-4.97361 -2.18161,1.81058 -2.35303,3.00118 -0.71606,4.97361 1.18369,1.42625 2.79661,2.59319 3.58427,2.59319 0.78766,0 2.40058,-1.16694 3.58427,-2.59319 z m 32.45021,-0.25164 c 1.88541,-2.27177 1.87741,-3.42751 -0.0397,-5.7375 -2.14326,-2.58247 -2.77759,-2.5516 -5.91518,0.28788 -2.67256,2.41864 -3.00612,3.79309 -1.3924,5.73751 2.73274,3.29274 4.43086,3.2262 7.34729,-0.28789 z m 64.93767,-30.7992 c 18.52566,-18.50422 33.68302,-34.61524 33.68302,-35.80226 0,-1.18703 -1.11117,-3.08042 -2.46928,-4.20755 -1.90224,-1.57872 -10.47136,5.96153 -37.31604,32.83567 -30.11198,30.14502 -34.51222,35.28807 -32.3847,37.85158 1.35413,1.63162 2.98899,2.96659 3.63301,2.96659 0.64403,0 16.32832,-15.13981 34.85399,-33.64403 z M 357.5674,190.3241 c 1.57856,-1.90205 -6.1306,-10.64021 -33.57209,-38.0532 -31.67668,-31.64377 -35.90506,-35.24215 -38.18464,-32.49543 -2.26238,2.726 1.53839,7.19507 32.36268,38.05319 19.20938,19.23044 35.47037,34.96444 36.13555,34.96444 0.66518,0 2.1315,-1.11105 3.2585,-2.469 z m 32.34446,-0.12419 c 1.63697,-1.97243 1.46556,-3.16303 -0.71606,-4.9736 -4.01754,-3.33426 -9.70748,1.05157 -6.45249,4.9736 1.1837,1.42625 2.79662,2.59319 3.58428,2.59319 0.78765,0 2.40058,-1.16694 3.58427,-2.59319 z m 32.38127,-0.16855 c 2.57282,-3.10007 1.14212,-6.72102 -2.65559,-6.72102 -4.16551,0 -7.02153,4.66775 -4.43725,7.25203 2.91851,2.91849 4.31688,2.8138 7.09284,-0.53102 z m -275.8203,-21.69893 c -2.60745,-2.60745 -3.22602,-2.5817 -6.05991,0.25219 -2.63089,2.63088 -2.74343,3.65322 -0.67634,6.1439 2.24976,2.7108 2.81169,2.68741 6.05991,-0.25218 3.21475,-2.90931 3.28379,-3.53646 0.67634,-6.14391 z m 195.1566,-30.952 c -18.7048,-19.07045 -35.07813,-34.94997 -36.38516,-35.28784 -1.30704,-0.33787 -2.92336,0.81096 -3.59182,2.55295 -0.89944,2.34392 7.84173,12.23432 33.62605,38.04694 30.48904,30.52248 35.18614,34.535 37.60056,32.12058 2.41443,-2.41443 -1.4893,-7.09054 -31.24963,-37.43263 z m 64.67099,30.952 c -2.60745,-2.60745 -3.22602,-2.5817 -6.05992,0.25219 -2.63088,2.63088 -2.74342,3.65322 -0.67633,6.1439 2.24975,2.7108 2.8117,2.68741 6.0599,-0.25218 3.21475,-2.90931 3.28379,-3.53646 0.67635,-6.14391 z M 211.51181,140.97132 c 30.87217,-30.90604 34.37287,-35.03655 31.62625,-37.31604 -2.72562,-2.26207 -7.18709,1.53089 -37.97348,32.28354 -26.87413,26.84468 -34.41438,35.41379 -32.83566,37.31604 1.12712,1.3581 2.59356,2.46928 3.25874,2.46928 0.66517,0 16.83104,-15.63877 35.92415,-34.75282 z m 15.42494,-53.381865 c -2.53732,-2.537321 -6.69423,0.99591 -37.75315,32.088905 -30.83605,30.86988 -34.60262,35.30076 -32.33298,38.03551 2.28693,2.75558 6.43091,-0.76667 37.75315,-32.0889 31.3102,-31.310198 34.8703,-35.498194 32.33298,-38.035515 z m 163.29079,69.988695 c 2.13541,-2.57301 -2.30004,-7.74145 -32.92673,-38.36814 -33.65706,-33.65708 -35.55688,-35.232276 -38.70077,-32.088372 -3.14392,3.143907 -1.58692,5.027374 31.7173,38.368142 19.26294,19.28407 35.56776,35.06194 36.23294,35.06194 0.66518,0 2.31994,-1.33811 3.67726,-2.97357 z M 275.88089,104.29223 c -2.63087,-2.63089 -3.65321,-2.74343 -6.1439,-0.67635 -2.71079,2.24976 -2.68741,2.8117 0.25219,6.05991 2.90931,3.21476 3.53646,3.2838 6.1439,0.67635 2.60745,-2.60745 2.58172,-3.22602 -0.25219,-6.05991 z M 259.02797,87.439298 c -2.65565,-2.655651 -3.17601,-2.655651 -5.38001,0 -1.98895,2.396545 -1.98895,3.483478 0,5.880023 2.204,2.65565 2.72436,2.65565 5.38001,0 2.65565,-2.655648 2.65565,-3.224375 0,-5.880023 z m 34.44757,5.689655 c 2.01562,-2.428671 1.89109,-3.488929 -0.71604,-6.09606 -2.94369,-2.943695 -3.36841,-2.943695 -6.3121,0 -2.60713,2.607131 -2.73166,3.667389 -0.71605,6.09606 1.342,1.617005 3.08444,2.940011 3.8721,2.940011 0.78766,0 2.53009,-1.323006 3.87209,-2.940011 z M 243.87737,76.406804 c 3.255,-3.922029 -2.43494,-8.307862 -6.45248,-4.973603 -2.18161,1.810576 -2.35302,3.001176 -0.71605,4.973603 1.18369,1.426256 2.79661,2.593195 3.58426,2.593195 0.78766,0 2.40058,-1.166939 3.58427,-2.593195 z m 32.38128,-0.168547 c 2.57282,-3.100071 1.14212,-6.721017 -2.65559,-6.721017 -4.16551,0 -7.02152,4.667742 -4.43724,7.252023 2.91849,2.918494 4.31686,2.813802 7.09283,-0.531013 z m 33.85111,-1.533007 c 0.75481,-3.919383 -4.72015,-6.560372 -7.60976,-3.670768 -2.8896,2.889603 -0.24862,8.36457 3.67076,7.609767 1.81661,-0.349845 3.58917,-2.122398 3.939,-3.939007 z M 261.15517,57.06936 c 0,-4.115332 -3.95058,-5.276412 -7.13114,-2.095851 -2.46105,2.461045 -2.54982,3.485219 -0.51465,5.937451 1.87417,2.258235 3.07647,2.451276 5.0526,0.811237 1.42626,-1.183688 2.59319,-3.277466 2.59319,-4.652837 z m 31.35215,-2.530031 c -2.60746,-2.607449 -3.22602,-2.581707 -6.05992,0.252185 -2.63088,2.630887 -2.74342,3.653219 -0.67633,6.143906 2.24975,2.710794 2.81169,2.68741 6.0599,-0.252185 3.21475,-2.909312 3.28378,-3.536454 0.67635,-6.143906 z M 276.32759,43.913792 c 1.8854,-2.271777 1.87741,-3.427516 -0.0396,-5.737501 -2.14326,-2.582474 -2.77758,-2.551602 -5.91518,0.287879 -2.67256,2.418637 -3.00611,3.793088 -1.39239,5.737503 2.73265,3.292742 4.43077,3.226208 7.34721,-0.287881 z"
     id="path3962"
     inkscape:connector-curvature="0" />
  <path
     style="fill:#2d3c49;stroke-width:1.89655173;fill-opacity:1"
     d="m 178.1737,298.5186 c -50.32571,-50.33373 -91.501285,-92.79608 -91.501285,-94.36078 0,-4.2493 182.324175,-185.847476 186.590475,-185.847476 4.97411,0 185.13366,180.315706 185.13366,185.294136 0,4.57284 -181.12645,186.43 -185.68091,186.43 -1.67236,0 -44.21623,-41.18214 -94.54194,-91.51588 z m 97.70719,65.60121 c -2.63087,-2.63088 -3.65321,-2.74342 -6.1439,-0.67633 -2.71079,2.24975 -2.68741,2.81169 0.25219,6.0599 2.90931,3.21475 3.53646,3.28378 6.1439,0.67635 2.60745,-2.60746 2.58172,-3.22602 -0.25219,-6.05992 z m -16.85292,-16.85293 c -2.65565,-2.65565 -3.17601,-2.65565 -5.38001,0 -1.98895,2.39656 -1.98895,3.48347 0,5.88003 2.204,2.65565 2.72436,2.65565 5.38001,0 2.65565,-2.65565 2.65565,-3.22438 0,-5.88003 z m 33.73917,5.63778 c 0.63146,-1.64554 -0.10867,-4.24871 -1.64486,-5.78484 -2.45956,-2.45956 -3.08421,-2.44202 -5.23294,0.14698 -1.95025,2.34991 -1.9661,3.51101 -0.0791,5.78485 3.0422,3.66561 5.51379,3.61336 6.9568,-0.14699 z m -48.88977,-16.67027 c 1.63697,-1.97243 1.46556,-3.16303 -0.71605,-4.97361 -4.01754,-3.33425 -9.70748,1.05158 -6.45248,4.97361 1.18369,1.42627 2.79661,2.5932 3.58426,2.5932 0.78766,0 2.40058,-1.16693 3.58427,-2.5932 z m 32.24139,0 c 1.63697,-1.97243 1.46556,-3.16303 -0.71606,-4.97361 -4.01754,-3.33425 -9.70748,1.05158 -6.45248,4.97361 1.18368,1.42627 2.79661,2.5932 3.58426,2.5932 0.78766,0 2.40058,-1.16693 3.58428,-2.5932 z m 33.991,-1.70157 c 0.75481,-3.91937 -4.72015,-6.56036 -7.60976,-3.67075 -2.8896,2.8896 -0.24862,8.36457 3.67076,7.60976 1.81661,-0.34984 3.58917,-2.12239 3.939,-3.93901 z M 259.02797,315.0255 c -2.65565,-2.65565 -3.17601,-2.65565 -5.38001,0 -1.98895,2.39656 -1.98895,3.48347 0,5.88003 2.204,2.65565 2.72436,2.65565 5.38001,0 2.65565,-2.65564 2.65565,-3.22438 0,-5.88003 z m 33.47935,-0.65858 c -2.60746,-2.60745 -3.22602,-2.58172 -6.05992,0.25219 -2.63088,2.63088 -2.74342,3.65321 -0.67633,6.1439 2.24975,2.71079 2.81169,2.68741 6.0599,-0.25219 3.21475,-2.90931 3.28378,-3.53646 0.67635,-6.1439 z m -64.44957,5.34591 c 0.70816,-1.14582 -13.60428,-16.99792 -32.53455,-36.03448 -30.56566,-30.73729 -40.57492,-38.54173 -40.57492,-31.63724 0,3.02688 66.54626,69.71751 69.56658,69.71751 1.25319,0 2.84749,-0.92061 3.54289,-2.04579 z m 130.52596,-32.08698 c 28.35703,-28.56935 33.51406,-34.60568 31.56808,-36.95044 -1.60216,-1.93049 -3.29677,-2.26282 -5.44577,-1.06797 -1.71589,0.95404 -17.53764,16.21671 -35.15944,33.91702 -22.78777,22.88929 -31.70433,33.05616 -30.87849,35.20827 0.63862,1.66424 2.25473,3.02928 3.59136,3.03342 1.33662,0.004 17.68252,-15.359 36.32426,-34.1403 z M 243.47016,303.5595 c 0.82789,-2.15744 -8.57944,-12.77891 -32.75528,-36.98276 -18.65421,-18.67584 -34.99244,-33.95605 -36.30719,-33.95605 -6.82046,0 0.70152,9.69502 31.25359,40.28249 18.50421,18.52567 34.31979,33.68303 35.14573,33.68303 0.82593,0 2.02435,-1.36203 2.66315,-3.02671 z m 32.85743,0.18188 c 1.8854,-2.27179 1.87741,-3.42753 -0.0396,-5.73751 -2.14326,-2.58247 -2.77758,-2.5516 -5.91518,0.28788 -2.67256,2.41864 -3.00611,3.79309 -1.39239,5.73751 2.73273,3.29275 4.43084,3.2262 7.34728,-0.28788 z m 65.23009,-33.04042 c 30.6812,-30.85344 36.17384,-38.08027 28.94239,-38.08027 -3.66987,0 -70.08009,67.72747 -68.66126,70.02317 0.69539,1.12519 2.31187,2.04579 3.59216,2.04579 1.28027,0 17.5373,-15.29491 36.12671,-33.98869 z m -80.82541,14.84794 c 0.68187,-3.51174 -66.80419,-70.66285 -69.9586,-69.61138 -1.31927,0.43975 -2.75963,1.88244 -3.20081,3.20597 -1.07718,3.23155 66.87305,71.02946 70.10909,69.95192 1.38872,-0.46242 2.76137,-2.05835 3.05032,-3.54651 z m 63.77572,-29.98771 c 24.71478,-24.74342 33.5931,-34.79941 32.7239,-37.06454 -1.86244,-4.85341 -5.10332,-2.19211 -39.92669,32.78643 -22.78777,22.88929 -31.70433,33.05616 -30.87849,35.20827 0.63862,1.66424 1.8369,3.02589 2.66283,3.02589 0.82595,0 16.76423,-15.28021 35.41845,-33.95605 z m -16.41303,-86.93634 -35.54756,-35.54757 -35.09316,35.05469 -35.09315,35.05469 35.54831,35.58529 35.54831,35.58528 35.09241,-35.09241 35.0924,-35.09241 z m -161.3623,70.48671 c 0.63145,-1.64554 -0.10873,-4.24871 -1.64485,-5.78484 -2.45957,-2.45956 -3.08421,-2.44202 -5.23295,0.14698 -1.95025,2.3499 -1.96611,3.51101 -0.079,5.78484 3.0422,3.66562 5.51378,3.61337 6.9568,-0.14698 z m 259.82759,0 c 0.63145,-1.64554 -0.10867,-4.24871 -1.64486,-5.78484 -2.45956,-2.45956 -3.08421,-2.44202 -5.23295,0.14698 -1.95024,2.3499 -1.9661,3.51101 -0.0791,5.78484 3.04221,3.66562 5.51379,3.61337 6.9568,-0.14698 z M 130.08427,222.44129 c 3.25499,-3.92203 -2.43495,-8.30787 -6.45248,-4.97361 -2.18161,1.81058 -2.35303,3.00118 -0.71606,4.97361 1.18369,1.42626 2.79661,2.59319 3.58427,2.59319 0.78766,0 2.40058,-1.16693 3.58427,-2.59319 z m 33.51097,0.51465 c 0.70654,-1.14321 -0.0537,-3.41687 -1.68944,-5.05261 -2.46104,-2.46104 -3.48522,-2.54982 -5.93745,-0.51464 -2.25823,1.87417 -2.45128,3.07647 -0.81124,5.0526 2.59087,3.1218 6.67295,3.37076 8.43813,0.51465 z m 226.31662,-0.51465 c 3.255,-3.92203 -2.43494,-8.30787 -6.45248,-4.97361 -2.18163,1.81058 -2.35304,3.00118 -0.71607,4.97361 1.1837,1.42626 2.79662,2.59319 3.58428,2.59319 0.78765,0 2.40058,-1.16693 3.58427,-2.59319 z m 33.08284,-0.11304 c 1.4462,-3.76871 -3.91617,-8.04477 -6.65448,-5.30645 -2.61886,2.61885 -0.65686,8.01262 2.9146,8.01262 1.48577,0 3.16874,-1.21777 3.73988,-2.70617 z M 112.99349,201.2324 c -2.65565,-2.65565 -3.17602,-2.65565 -5.38001,0 -1.98896,2.39655 -1.98896,3.48348 0,5.88003 2.20399,2.65564 2.72436,2.65564 5.38001,0 2.65564,-2.65565 2.65564,-3.22438 0,-5.88003 z m 32.24138,0 c -2.65565,-2.65565 -3.17602,-2.65565 -5.38001,0 -1.98896,2.39655 -1.98896,3.48348 0,5.88003 2.20399,2.65564 2.72436,2.65564 5.38001,0 2.65564,-2.65565 2.65564,-3.22438 0,-5.88003 z m 34.44758,5.68965 c 2.01561,-2.42866 1.89108,-3.48892 -0.71606,-6.09605 -2.94369,-2.9437 -3.3684,-2.9437 -6.31209,0 -2.60713,2.60713 -2.73167,3.66739 -0.71605,6.09605 1.34199,1.61702 3.08444,2.94002 3.8721,2.94002 0.78766,0 2.5301,-1.323 3.8721,-2.94002 z m 193.13862,-5.68965 c -2.65565,-2.65565 -3.17601,-2.65565 -5.38001,0 -1.98895,2.39655 -1.98895,3.48348 0,5.88003 2.204,2.65564 2.72436,2.65564 5.38001,0 2.65564,-2.65565 2.65564,-3.22438 0,-5.88003 z m 32.24138,0 c -2.65565,-2.65565 -3.17601,-2.65565 -5.38001,0 -1.98895,2.39655 -1.98895,3.48348 0,5.88003 2.204,2.65564 2.72436,2.65564 5.38001,0 2.65564,-2.65565 2.65564,-3.22438 0,-5.88003 z m 33.47935,-0.65859 c -2.60746,-2.60745 -3.22602,-2.58171 -6.05992,0.25219 -2.63088,2.63088 -2.74342,3.65322 -0.67633,6.1439 2.24975,2.7108 2.8117,2.68742 6.0599,-0.25218 3.21475,-2.90931 3.28379,-3.53646 0.67635,-6.14391 z m -308.45753,-10.3739 c 3.25499,-3.92203 -2.43495,-8.30786 -6.45248,-4.97361 -2.18161,1.81058 -2.35303,3.00118 -0.71606,4.97361 1.18369,1.42625 2.79661,2.59319 3.58427,2.59319 0.78766,0 2.40058,-1.16694 3.58427,-2.59319 z m 32.38127,-0.16855 c 2.60624,-3.14035 1.12737,-6.72102 -2.77588,-6.72102 -3.41287,0 -5.35532,3.25076 -4.02069,6.72876 1.3472,3.51075 3.87886,3.50787 6.79657,-0.008 z m 65.32218,-31.30252 c 18.55296,-18.73534 33.38379,-35.11088 32.95738,-36.39009 -0.4264,-1.2792 -1.87569,-2.69263 -3.22065,-3.14095 -1.34496,-0.44832 -17.86245,14.60193 -36.70552,33.44501 -29.48728,29.48728 -33.91962,34.67041 -31.81593,37.20521 1.34431,1.61979 3.03097,2.94508 3.74813,2.94508 0.71716,0 16.48362,-15.32891 35.03659,-34.06426 z m 129.47553,31.03755 c 0.82791,-2.15744 -8.57943,-12.77889 -32.75526,-36.98276 -18.65422,-18.67582 -34.99245,-33.95604 -36.30719,-33.95604 -6.82046,0 0.70151,9.69501 31.25358,40.28249 18.50422,18.52566 34.31979,33.68302 35.14574,33.68302 0.82593,0 2.02434,-1.36202 2.66313,-3.02671 z m 32.64861,0.43352 c 1.63697,-1.97243 1.46556,-3.16303 -0.71606,-4.97361 -4.01754,-3.33425 -9.70748,1.05158 -6.45249,4.97361 1.1837,1.42625 2.79662,2.59319 3.58428,2.59319 0.78765,0 2.40058,-1.16694 3.58427,-2.59319 z m 32.38127,-0.16855 c 2.60624,-3.14035 1.12737,-6.72102 -2.77589,-6.72102 -3.41286,0 -5.35531,3.25076 -4.02069,6.72876 1.34722,3.51075 3.87887,3.50787 6.79658,-0.008 z m -275.8203,-21.69893 c -2.60745,-2.60745 -3.22602,-2.5817 -6.05991,0.25219 -2.63089,2.63088 -2.74343,3.65322 -0.67634,6.1439 2.24976,2.7108 2.81169,2.68741 6.05991,-0.25218 3.21475,-2.90931 3.28379,-3.53646 0.67634,-6.14391 z m 260.71683,2.53003 c 0,-4.11533 -3.9506,-5.27641 -7.13115,-2.09585 -2.46104,2.46105 -2.54982,3.48522 -0.51465,5.93745 1.87417,2.25824 3.07647,2.45128 5.0526,0.81124 1.42627,-1.18369 2.5932,-3.27747 2.5932,-4.65284 z M 210.40318,142.0801 c 18.52567,-18.50421 33.68303,-34.66936 33.68303,-35.92255 0,-7.112224 -7.13526,-1.77549 -36.32219,27.16676 -17.73148,17.58284 -33.06776,33.47996 -34.08062,35.32695 -1.79303,3.26965 -0.85443,7.07288 1.7455,7.07288 0.71019,0 16.44862,-15.13982 34.97428,-33.64404 z m 162.64855,30.30531 c 0,-1.8363 -15.34518,-18.66613 -34.10038,-37.39962 -25.57354,-25.54394 -34.6423,-33.51897 -36.26767,-31.8936 -1.62536,1.62536 -1.19866,3.50798 1.70648,7.52893 6.06476,8.39412 63.92493,65.10302 66.42472,65.10302 1.23025,0 2.23685,-1.50243 2.23685,-3.33873 z m 17.10862,-14.72631 c 2.04552,-2.46469 -2.62202,-7.93582 -31.55081,-36.98276 -31.84126,-31.971291 -40.55781,-38.610229 -40.55781,-30.890756 0,2.945889 65.59933,70.766136 68.44875,70.766136 0.69256,0 2.33951,-1.30168 3.65987,-2.89262 z M 195.5232,124.66648 c 30.68119,-30.853454 36.17384,-38.080274 28.94239,-38.080274 -3.66986,0 -70.08009,67.727474 -68.66127,70.023174 0.6954,1.12518 2.31187,2.04579 3.59216,2.04579 1.28028,0 17.53731,-15.29491 36.12672,-33.98869 z m 81.86515,-15.50365 c 0.70654,-1.1432 -0.0537,-3.41687 -1.68945,-5.0526 -2.46104,-2.46104 -3.48521,-2.54982 -5.93745,-0.51465 -2.25823,1.87417 -2.45127,3.07648 -0.81123,5.0526 2.59086,3.1218 6.67295,3.37077 8.43813,0.51465 z M 259.02797,87.439298 c -2.65565,-2.655651 -3.17601,-2.655651 -5.38001,0 -1.98895,2.396545 -1.98895,3.483478 0,5.880023 2.204,2.65565 2.72436,2.65565 5.38001,0 2.65565,-2.655648 2.65565,-3.224375 0,-5.880023 z m 34.20182,5.985771 c 1.69775,-2.045653 1.47442,-3.363722 -0.98699,-5.825124 -2.8475,-2.847498 -3.48388,-2.878563 -6.06632,-0.296116 -2.37324,2.373231 -2.45221,3.406732 -0.44513,5.825124 3.01317,3.630643 4.67652,3.69633 7.49844,0.296116 z M 243.87737,76.406804 c 3.255,-3.922029 -2.43494,-8.307862 -6.45248,-4.973603 -2.18161,1.810576 -2.35302,3.001176 -0.71605,4.973603 1.18369,1.426256 2.79661,2.593195 3.58426,2.593195 0.78766,0 2.40058,-1.166939 3.58427,-2.593195 z m 31.92271,0.465539 c 2.60681,-2.606812 1.05206,-7.355103 -2.4083,-7.355103 -3.33189,0 -5.25087,3.285839 -3.92971,6.728752 1.26621,3.299675 3.44897,3.515385 6.33801,0.626351 z m 34.30968,-2.167101 c 0.75481,-3.919375 -4.72015,-6.560364 -7.60976,-3.67076 -2.8896,2.889603 -0.24862,8.36457 3.67076,7.609767 1.81661,-0.349845 3.58917,-2.122398 3.939,-3.939007 z M 261.15517,57.160341 c 0,-3.668891 -5.12016,-4.838634 -7.67976,-1.754506 -3.22907,3.890782 1.27301,9.481333 5.08657,6.316362 1.42626,-1.183688 2.59319,-3.236523 2.59319,-4.561856 z m 32.24138,-0.09098 c 0,-4.115331 -3.95059,-5.276411 -7.13115,-2.09585 -2.46104,2.461045 -2.54981,3.485219 -0.51464,5.937451 1.87417,2.258235 3.07647,2.451276 5.0526,0.811236 1.42626,-1.183691 2.59319,-3.277469 2.59319,-4.65284 z m -17.1379,-13.072489 c 2.60624,-3.140342 1.12737,-6.721013 -2.77589,-6.721013 -3.41287,0 -5.35532,3.250754 -4.02069,6.728751 1.34721,3.510758 3.87887,3.507874 6.79658,-0.0078 z"
     id="path3964"
     inkscape:connector-curvature="0" />
  <path
     style="fill:#2d3c49;fill-opacity:1;stroke-width:1.89655173"
     d="m 260.86911,381.34674 c -4.42935,-4.60967 -7.46043,-8.38122 -6.73574,-8.38122 0.72468,0 -1.57757,-2.98707 -5.11613,-6.63793 -3.53855,-3.65087 -7.41421,-6.63794 -8.61258,-6.63794 -1.19836,0 -3.72356,-1.70689 -5.61156,-3.7931 -1.88799,-2.08621 -2.75636,-3.7931 -1.9297,-3.7931 0.82665,0 -1.38806,-2.39685 -4.92158,-5.32632 -13.50019,-11.19236 -108.83837,-106.56735 -108.83837,-108.88039 0,-1.33718 -1.28017,-2.47001 -2.84483,-2.51742 -1.56465,-0.0474 -2.66534,-1.01261 -2.44596,-2.14489 0.21937,-1.13226 -1.27416,-3.57272 -3.31897,-5.42324 -2.0448,-1.85053 -3.71783,-2.62138 -3.71783,-1.71303 0,0.90838 -4.69396,-2.98409 -10.431031,-8.64989 -5.737069,-5.66579 -10.431034,-11.41649 -10.431034,-12.77931 0,-3.3213 15.196775,-19.67087 17.157525,-18.45905 1.6536,1.02197 4.57576,-2.6084 4.62378,-5.74439 0.0159,-1.04311 1.09585,-1.89656 2.39973,-1.89656 1.30388,0 2.15733,-0.63492 1.89655,-1.41093 -0.73171,-2.17743 116.66097,-118.93669 118.46248,-117.823291 0.87362,0.539926 1.35389,-0.148556 1.06727,-1.529976 -0.28662,-1.381414 0.41179,-2.34293 1.55202,-2.136703 1.14023,0.206227 5.79853,-3.420928 10.35177,-8.060345 4.55325,-4.639417 7.49,-8.435302 6.52612,-8.435302 -0.96387,0 2.88316,-4.693966 8.54896,-10.431035 5.80051,-5.873472 11.98707,-10.426532 14.15935,-10.42073 2.55064,0.0068 32.13438,28.309346 87.30617,83.525142 45.89655,45.93316 83.44827,84.33369 83.44827,85.33452 0,1.00083 0.85345,1.85907 1.89656,1.9072 3.17253,0.1464 14.22413,11.83357 14.22413,15.04217 0,1.65346 -5.12069,8.07355 -11.37931,14.26687 -6.25862,6.19332 -11.37931,10.46056 -11.37931,9.48276 0,-0.97781 -5.08037,3.24953 -11.28969,9.39408 -6.20933,6.14456 -10.95168,11.71885 -10.53854,12.38732 0.41315,0.6685 -25.23062,27.18677 -56.98616,58.92949 -31.75552,31.74274 -57.73733,56.97472 -57.73733,56.07109 0,-0.90365 -1.27079,-0.58833 -2.82395,0.70068 -1.55316,1.28903 -2.44604,2.95514 -1.98415,3.70249 1.39529,2.25764 -18.61449,20.33627 -22.69619,20.50578 -2.15106,0.0893 -7.28887,-3.4759 -11.85074,-8.2235 z m 16.59641,-12.13478 c 2.50711,-1.58537 2.47934,-2.1645 -0.23387,-4.87847 -2.59548,-2.5962 -3.69658,-2.69365 -7.01564,-0.62087 -2.93274,1.83154 -3.41856,3.0833 -1.90461,4.90752 2.39659,2.88771 5.23338,3.0711 9.15412,0.59182 z m -17.2374,-22.05284 c -3.3435,-4.02868 -9.63564,0.80019 -7.13385,5.47483 1.82071,3.40204 2.09261,3.41611 5.54997,0.28723 2.70161,-2.44492 3.10847,-3.92504 1.58388,-5.76206 z m 34.30636,5.36489 c 0,-0.5886 -1.37856,-2.59346 -3.06348,-4.45529 -2.72915,-3.01567 -3.37535,-3.07325 -5.92101,-0.52758 -2.54567,2.54567 -2.47872,3.13451 0.61334,5.39548 3.20258,2.34179 8.37115,2.08702 8.37115,-0.41261 z m -51.27584,-16.45818 c 2.86842,-3.45622 1.00502,-6.721 -3.83608,-6.721 -2.30526,0 -3.68118,1.29961 -3.68118,3.477 0,6.21032 3.7223,7.81664 7.51726,3.244 z m 32.4099,-3.58695 c -2.7787,-2.7787 -7.35488,-3.15122 -6.96163,-0.56669 0.78914,5.18638 3.32561,7.16684 6.16301,4.81201 1.89499,-1.57272 2.14456,-2.89938 0.79862,-4.24532 z m 34.57063,2.62158 c 0.67558,-2.58346 -0.18814,-4.09617 -2.81454,-4.92978 -4.67612,-1.48415 -7.73443,1.26563 -6.11147,5.49494 1.67401,4.36244 7.73782,3.97851 8.92601,-0.56516 z m -51.37584,-19.63132 c -2.90108,-3.24955 -3.21064,-3.25947 -5.46597,-0.17505 -1.97628,2.70272 -1.84582,3.66795 0.75257,5.56793 4.93328,3.6073 8.79936,-0.81604 4.7134,-5.3928 z m 33.51627,-0.65971 c -1.71048,-2.06102 -2.75882,-2.11109 -5.20882,-0.24879 -1.68704,1.28235 -3.3668,2.51691 -3.73279,2.74345 -0.366,0.22655 0.48745,1.66844 1.89655,3.20423 2.25335,2.45592 2.96107,2.43625 5.87428,-0.16311 2.5283,-2.25591 2.8054,-3.56618 1.17078,-5.53576 z m -65.31047,5.27556 c 1.51495,-2.45126 -4.59199,-9.64217 -32.09615,-37.79314 -26.07206,-26.68518 -35.88228,-34.46876 -39.22743,-31.12361 -1.34837,1.34838 8.60312,12.64361 31.90607,36.21437 18.62609,18.84016 34.88206,34.28209 36.12438,34.31541 1.24232,0.0334 2.72423,-0.69254 3.29313,-1.61303 z m 129.06554,-30.25025 c 37.01235,-37.18813 39.10058,-40.00895 30.54784,-41.26422 -4.03385,-0.59205 -67.49285,64.46299 -67.49285,69.19034 0,2.19877 1.1637,3.99776 2.586,3.99776 1.42232,0 16.88386,-14.36575 34.35901,-31.92388 z m -113.17621,11.86832 c -0.64571,-2.93554 -65.9029,-69.08237 -68.15325,-69.08237 -6.27565,0 0.43642,8.5126 30.7069,38.94408 31.51652,31.68417 39.13514,37.81593 37.44635,30.13829 z m 32.54157,2.12139 c 2.60624,-3.14033 1.12736,-6.721 -2.77589,-6.721 -3.41287,0 -5.35532,3.25074 -4.02069,6.72875 1.34721,3.51075 3.87887,3.50787 6.79658,-0.008 z m 65.09487,-32.91817 c 18.47712,-18.58086 33.59476,-34.79637 33.59476,-36.03448 0,-1.23811 -1.29969,-2.25111 -2.88819,-2.25111 -3.25759,0 -67.89467,65.09745 -68.8457,69.33605 -1.62472,7.24098 7.2308,0.0313 38.13913,-31.05046 z m -80.08102,13.20586 c -2.16847,-3.96897 -53.84336,-56.41562 -62.30673,-63.23727 -7.45952,-6.01254 -12.97174,-5.41659 -9.52924,1.03023 2.9379,5.50185 43.42712,46.89745 57.0388,58.31564 6.48628,5.44104 12.05763,8.72814 13.71527,8.09204 1.95782,-0.75128 2.28097,-2.00597 1.0819,-4.20064 z m 63.29308,-28.25869 c 18.3125,-18.51509 33.29954,-35.18735 33.30459,-37.04948 0.008,-2.89966 -0.60345,-3.06957 -4.2581,-1.1836 -7.9916,4.12403 -65.90517,63.86765 -65.90517,67.98772 0,2.15004 0.80173,3.90915 1.78164,3.90915 0.97989,0 16.76457,-15.14871 35.07704,-33.66379 z m 18.09883,-52.61009 c -0.0234,-1.05367 -15.37908,-17.27784 -34.12378,-36.05371 l -34.08126,-34.13793 -35.56174,35.55389 -35.56173,35.55389 35.05445,35.09292 35.05446,35.0929 34.63103,-34.59308 c 19.04709,-19.02621 34.61194,-35.4552 34.58857,-36.50888 z m -195.58067,37.17568 c 2.00186,-1.26852 2.0915,-2.51388 0.40741,-5.66062 -2.44624,-4.57084 -4.10163,-4.99276 -7.24721,-1.84718 -1.50476,1.50474 -1.60228,3.27982 -0.31258,5.68966 2.08037,3.88721 3.36989,4.21501 7.15238,1.81814 z m 260.03051,-0.12536 c 2.37048,-1.49939 2.26071,-2.31383 -0.76204,-5.65392 -4.50618,-4.97929 -9.74469,-1.92732 -6.64217,3.86978 2.15328,4.02348 3.392,4.32196 7.40421,1.78414 z M 131.07529,220.73972 c 0.7548,-3.91937 -4.72017,-6.56036 -7.60977,-3.67076 -2.8896,2.88961 -0.24862,8.36458 3.67076,7.60977 1.81661,-0.34984 3.58916,-2.1224 3.93901,-3.93901 z m 31.76133,2.21622 c 2.03411,-3.29126 -4.32217,-8.69454 -7.0358,-5.98089 -1.681,1.68099 -1.62873,2.90823 0.21868,5.13423 2.86093,3.44721 5.04244,3.71813 6.81712,0.84666 z m 226.64541,-0.91084 c 2.05611,-2.47745 2.01469,-3.28441 -0.24191,-4.71233 -3.84268,-2.43155 -4.99899,-2.20557 -6.31923,1.23493 -2.32726,6.06477 2.35449,8.5461 6.56114,3.4774 z m 33.18218,0.91084 c 2.00422,-3.24292 -4.31942,-8.69729 -6.9887,-6.028 -1.18906,1.18906 -1.64867,3.49946 -1.02135,5.13423 1.31259,3.42052 6.1171,3.9566 8.01005,0.89377 z M 113.65483,200.75581 c -3.22759,-3.22759 -6.87897,-1.52242 -6.87897,3.21244 0,5.22257 2.20272,6.20462 6.06892,2.70575 3.06857,-2.777 3.17483,-3.5534 0.81005,-5.91819 z m 66.02662,6.20112 c 3.64424,-2.75637 3.64424,-2.81267 0,-5.56903 -4.67106,-3.53301 -5.5356,-3.53921 -8.42283,-0.0603 -1.88363,2.26963 -1.88363,3.42002 0,5.68965 2.88723,3.47888 3.75177,3.4727 8.42283,-0.0603 z m 193.61222,0.27896 c 2.23719,-2.23719 2.08253,-3.11815 -1.0442,-5.94781 -3.35753,-3.03851 -3.77189,-3.05714 -4.86111,-0.21865 -1.23149,3.2092 0.12479,8.79264 2.13586,8.79264 0.6288,0 2.32505,-1.18178 3.76945,-2.62618 z m 32.30157,-4.77803 c -1.54946,-2.50709 -3.03144,-2.5736 -6.62846,-0.2975 -2.29464,1.45198 -2.32026,2.20808 -0.16292,4.80751 2.2397,2.69868 2.90499,2.73953 5.31797,0.32655 1.51692,-1.51691 2.17996,-3.69336 1.47341,-4.83656 z m 32.63048,-1.44149 c -2.63088,-2.63089 -3.65321,-2.74343 -6.1439,-0.67635 -2.7108,2.24976 -2.68741,2.8117 0.25219,6.05991 2.90931,3.21475 3.53646,3.28379 6.14389,0.67635 2.60746,-2.60745 2.58172,-3.22602 -0.25218,-6.05991 z m 17.75758,5.52673 c 2.35907,-3.00803 2.29199,-3.07512 -0.71606,-0.71605 -3.15918,2.47759 -4.16384,4.03502 -2.6029,4.03502 0.39382,0 1.88735,-1.49354 3.31896,-3.31897 z m -310.21565,-0.65613 c 0.70654,-1.1432 0.0435,-3.31966 -1.4734,-4.83657 -2.41299,-2.41298 -3.07827,-2.37213 -5.31797,0.32655 -2.15735,2.59944 -2.13172,3.35553 0.16291,4.80751 3.59702,2.27611 5.07899,2.2096 6.62846,-0.29749 z m -14.33661,-18.81284 c 0,-2.37009 -4.87553,-3.54253 -7.63625,-1.83631 -2.11414,1.30661 -2.12279,2.09236 -0.0505,4.5893 1.90715,2.29797 3.11561,2.50215 5.09357,0.86059 1.42626,-1.18368 2.5932,-2.80979 2.5932,-3.61358 z m 30.27587,2.95722 c 2.60625,-3.14034 1.12738,-6.72101 -2.77587,-6.72101 -3.41287,0 -5.35532,3.25076 -4.02069,6.72876 1.3472,3.51075 3.87886,3.50787 6.79656,-0.008 z m 61.65203,-27.10894 c 35.53392,-35.48286 40.69687,-41.64091 36.32014,-43.32042 -1.93108,-0.74102 -6.31242,1.6038 -12.06271,6.45576 -15.58584,13.15099 -59.28878,58.38141 -59.28878,61.36101 0,3.01668 1.67719,5.37434 3.82321,5.37434 0.71195,0 14.75562,-13.44181 31.20814,-29.87069 z m 133.39263,24.98755 c -0.64572,-2.93555 -65.9029,-69.08237 -68.15325,-69.08237 -7.7836,0 7.9159,19.27443 42.94993,52.73004 20.24302,19.331 26.79335,23.58095 25.20332,16.35233 z m 32.33315,2.3725 c 1.52158,-1.83339 1.48191,-3.11239 -0.14717,-4.74138 -3.34888,-3.34895 -7.16169,-2.68546 -7.16169,1.24627 0,6.04924 3.71482,7.82567 7.30886,3.49511 z m 32.99196,-5.36095 c -3.39766,-3.39765 -8.94422,1.67547 -5.87505,5.37358 1.91761,2.31058 2.64241,2.27712 5.15762,-0.23808 2.22695,-2.22696 2.39844,-3.45449 0.71743,-5.1355 z M 146.06231,173.98932 c 1.83293,-2.935 1.69922,-4.10327 -0.6973,-6.0922 -2.48,-2.05822 -3.39173,-1.87742 -5.57258,1.10507 -1.92874,2.6377 -2.06171,4.22351 -0.51083,6.09221 2.81944,3.39721 4.09924,3.18864 6.78071,-1.10508 z m 259.18862,-5.85139 c -2.52873,-2.52873 -3.14288,-2.44283 -5.52731,0.77314 -2.34708,3.16558 -2.28123,3.91138 0.52665,5.96455 2.62437,1.91899 3.63157,1.77811 5.52733,-0.77314 1.86103,-2.50451 1.75715,-3.68072 -0.52667,-5.96455 z M 209.34957,142.54655 c 32.27759,-32.06539 37.26274,-37.80958 34.36673,-39.59942 -2.4436,-1.51022 -4.87615,0.57578 -38.52838,33.03945 -24.05746,23.20779 -32.03275,32.04073 -32.03275,35.47753 0,2.51686 0.84416,4.29164 1.87591,3.94393 1.03174,-0.3477 16.47506,-15.13537 34.31849,-32.86149 z m 163.85026,31.34828 c 0.6218,-1.00612 -8.64162,-12.31431 -20.5854,-25.12931 -34.00263,-36.48291 -54.04069,-52.779387 -51.10805,-41.565 1.09996,4.2063 65.32657,68.52362 68.42696,68.52362 1.17474,0 2.64466,-0.82319 3.26649,-1.82931 z m 15.77337,-15.71938 c 3.16535,-3.81401 -0.2486,-7.90695 -34.19187,-40.99237 -28.76005,-28.033188 -36.53995,-33.793764 -36.53995,-27.055779 0,2.121227 64.95371,69.559249 67.56951,70.153869 0.6546,0.1488 2.07764,-0.79877 3.16231,-2.10572 z M 192.98262,126.55654 c 37.26335,-37.463176 39.27443,-39.970334 32.06162,-39.970334 -3.86279,0 -68.95803,65.371914 -68.95803,69.251134 0,1.54981 1.11802,2.81783 2.48449,2.81783 1.36647,0 16.85183,-14.44438 34.41192,-32.09863 z m 83.58596,-17.29479 c 1.26504,-2.04685 -2.24155,-7.50313 -4.82203,-7.50313 -2.02997,0 -4.00668,5.65886 -2.70974,7.75736 1.44513,2.33827 6.02508,2.18368 7.53177,-0.25423 z M 259.20999,88.43413 c -1.08475,-1.08475 -3.37952,-1.432257 -5.0995,-0.77224 -2.49532,0.957544 -2.71361,1.97289 -1.08027,5.024813 1.88143,3.515479 2.29382,3.577929 5.09951,0.772242 2.11315,-2.113159 2.44559,-3.659486 1.08026,-5.024815 z m 33.50693,4.694823 c 2.01562,-2.428671 1.89109,-3.488929 -0.71604,-6.09606 -2.94369,-2.943695 -3.36841,-2.943695 -6.3121,0 -2.60714,2.607131 -2.73166,3.667389 -0.71605,6.09606 1.342,1.617005 3.08444,2.940011 3.8721,2.940011 0.78766,0 2.53009,-1.323006 3.87209,-2.940011 z M 243.44755,76.010626 c 2.04748,-2.467058 2.03526,-3.264834 -0.0699,-4.565911 -4.89912,-3.027826 -10.32936,2.333425 -6.37187,6.290916 1.98322,1.983216 3.75887,1.507726 6.4418,-1.725005 z m 32.18812,0.06416 c 1.84741,-2.225994 1.89968,-3.45323 0.21869,-5.134237 -2.71364,-2.713624 -9.06991,2.689637 -7.0358,5.980898 1.77467,2.871485 3.95618,2.600549 6.81711,-0.846661 z m 34.6035,-0.801921 c 1.02318,-3.912656 -4.37342,-7.121931 -8.1015,-4.817844 -2.67194,1.651348 -2.39042,6.1399 0.45716,7.288922 4.63377,1.869763 6.68237,1.207542 7.64434,-2.471078 z M 258.97414,61.187498 c 4.05125,-3.075338 4.26261,-6.074742 0.52902,-7.507455 -3.61241,-1.38621 -8.74381,3.745188 -7.3576,7.357599 1.30183,3.392514 2.52165,3.419284 6.82858,0.149846 z m 33.45496,-1.84966 c 3.49937,-4.216482 -1.67448,-7.286879 -6.42523,-3.813036 -3.23977,2.368974 -3.37421,3.018486 -0.94291,4.555523 3.80758,2.407106 4.84061,2.303009 7.36814,-0.742487 z m -14.96358,-18.56062 c 0,-3.009414 -6.00628,-4.161181 -7.66913,-1.470636 -2.36317,3.823699 1.72381,8.128661 5.07594,5.346649 1.42626,-1.183687 2.59319,-2.927893 2.59319,-3.876013 z"
     id="path4771"
     inkscape:connector-curvature="0" />
  <path
     style="fill:#2d3c49;fill-opacity:1;stroke-width:1.89655173"
     d="m 261.02566,381.3306 c -4.34796,-4.60079 -7.38097,-8.36508 -6.74003,-8.36508 0.64094,0 -1.68895,-2.94489 -5.17754,-6.54421 -3.48859,-3.59931 -6.85644,-6.41861 -7.48411,-6.26512 -1.73399,0.42403 -128.26895,-125.8038 -127.81132,-127.5011 0.21937,-0.81362 -1.27416,-2.99338 -3.31897,-4.8439 -2.0448,-1.85053 -3.71783,-2.62138 -3.71783,-1.71303 0,0.90838 -4.69396,-2.98409 -10.431031,-8.64989 -9.885603,-9.7628 -12.888601,-15.17241 -8.422554,-15.17241 1.104664,0 1.566736,-0.71476 1.026825,-1.58835 -1.095443,-1.77247 13.45214,-16.70115 15.54746,-15.95475 0.73207,0.26077 1.33103,-0.25187 1.33103,-1.13922 0,-0.88734 30.08405,-31.7433 66.85345,-68.56879 36.76939,-36.825494 66.85344,-66.237226 66.85344,-65.359407 0,0.877821 2.53,-0.827856 5.62222,-3.790391 3.09222,-2.962535 5.26526,-5.963997 4.82898,-6.669917 -1.58166,-2.559182 18.8725,-20.546972 23.01977,-20.244033 4.83906,0.353471 186.44439,180.765858 186.49586,185.270778 0.0183,1.59731 -5.08752,7.97145 -11.34614,14.16477 -6.25862,6.19332 -11.37931,10.46299 -11.37931,9.48818 0,-0.97482 -4.64776,2.81763 -10.32837,8.42767 -5.68061,5.61006 -10.16121,10.76534 -9.9569,11.45622 0.57976,1.96043 -116.63806,118.62404 -118.59858,118.03783 -0.9586,-0.28661 -1.29307,0.20672 -0.74328,1.09632 1.51715,2.4548 -20.08776,22.49235 -24.42459,22.65268 -2.14775,0.0795 -7.22225,-3.48833 -11.69848,-8.22485 z m 16.43986,-12.22328 c 2.46079,-1.64656 2.34442,-2.28521 -0.862,-4.73087 -3.19452,-2.43659 -4.07738,-2.45677 -6.3882,-0.14603 -4.93913,4.93913 1.09311,8.99671 7.2502,4.87683 z m 14.66905,-14.7561 c 1.81238,-1.15117 1.67835,-2.43396 -0.59319,-5.67702 -2.60167,-3.71444 -3.25571,-3.86872 -5.76451,-1.35994 -2.33869,2.33869 -2.40033,3.31657 -0.35509,5.63395 2.88043,3.2637 3.55983,3.40569 6.71279,1.40301 z m -32.63016,-2.3386 c 0.67554,-1.09304 0.71581,-3.3228 0.0895,-4.95497 -0.92039,-2.39849 -1.68005,-2.51839 -3.96117,-0.62523 -1.5523,1.2883 -2.82237,3.51804 -2.82237,4.95497 0,3.05961 4.90632,3.51785 6.69406,0.62523 z M 243.44755,335.8382 c 2.05611,-2.47744 2.01468,-3.28441 -0.24191,-4.71232 -3.5677,-2.25754 -5.07868,-2.21011 -6.57211,0.20632 -1.50819,2.4403 0.25153,7.49539 2.60921,7.49539 0.94812,0 2.84028,-1.34523 4.20481,-2.98939 z m 31.89317,-3.92356 c -1.65272,-1.9914 -2.79675,-2.09772 -4.78815,-0.44501 -1.9914,1.65271 -2.09773,2.79675 -0.44501,4.78815 1.65271,1.99139 2.79675,2.09772 4.78815,0.445 1.9914,-1.65271 2.09772,-2.79675 0.44501,-4.78814 z m 34.36618,2.17157 c 0,-3.42897 -1.01896,-4.74138 -3.68117,-4.74138 -4.8411,0 -6.7045,3.26478 -3.8361,6.721 3.60049,4.33832 7.51727,3.30686 7.51727,-1.97962 z m -82.59925,-14.06356 c 1.52042,-2.46008 -5.64049,-10.63601 -36.06227,-41.17397 -24.08217,-24.17415 -33.31366,-31.43673 -36.23982,-28.51056 -2.01272,2.01272 65.79278,71.2301 69.91872,71.3746 0.72077,0.0252 1.79328,-0.73529 2.38337,-1.69007 z m 33.2889,-0.87664 c 0,-3.83692 -5.01654,-7.59706 -6.63714,-4.97487 -1.87482,3.03352 0.36557,7.58748 3.73279,7.58748 1.5974,0 2.90435,-1.17567 2.90435,-2.61261 z m 32.17244,-0.14907 c 2.19418,-2.64383 1.28262,-6.78717 -1.46541,-6.66069 -0.72076,0.0332 -3.01322,1.34704 -5.09434,2.91972 -3.24589,2.45287 -3.38072,3.11425 -0.94828,4.65201 3.84078,2.4281 4.83712,2.3072 7.50803,-0.91104 z m 39.35066,-5.29859 c 14.67122,-13.35891 49.724,-48.91598 54.85865,-55.64782 5.22961,-6.85638 4.74812,-10.46823 -1.18858,-8.91575 -5.35833,1.40115 -66.40006,64.97937 -66.40006,69.15912 0,5.31147 3.06479,4.20506 12.72999,-4.59563 z m -55.28992,-14.51628 c -1.90799,-3.08719 -6.70167,-2.51582 -8.03458,0.95768 -1.61685,4.21346 3.43402,7.0041 6.72408,3.71512 1.42731,-1.42683 2.01704,-3.5296 1.3105,-4.6728 z m -33.30214,3.52978 c 0,-1.08778 -3.76118,-5.99511 -8.35818,-10.90517 -14.07368,-15.03211 -58.06626,-58.19861 -59.99646,-58.86989 -0.99978,-0.34772 -1.81778,0.87717 -1.81778,2.72197 0,3.81557 63.9871,69.03089 67.73083,69.03089 1.34287,0 2.44159,-0.89001 2.44159,-1.9778 z m 97.18248,-31.83934 c 18.52377,-18.59943 33.67959,-34.81495 33.67959,-36.03449 0,-5.7611 -7.31311,0.13238 -36.7141,29.58739 -30.64226,30.69851 -35.2633,35.77949 -35.32583,38.84183 -0.0992,4.86096 8.42806,-2.34023 38.36034,-32.39473 z m -80.00373,13.16021 c -2.25437,-4.21234 -62.13954,-64.25664 -66.31511,-66.49132 -1.77276,-0.94875 -4.35549,-1.02522 -5.7394,-0.16994 -1.95603,1.2089 -1.34583,3.02191 2.74087,8.14361 6.82111,8.54863 49.02026,50.23032 58.54426,57.82639 7.69951,6.1409 13.8989,6.5388 10.76938,0.69124 z m 48.66237,-13.71075 c 30.81169,-30.29951 47.95198,-48.87652 47.95198,-51.97135 0,-4.42138 -4.44796,-1.38534 -22.27995,15.20759 -29.84074,27.76723 -55.65592,58.95338 -46.05996,55.64293 1.00789,-0.34769 10.18246,-8.84332 20.38793,-18.87917 z m 0.53819,-31.94016 c 17.2112,-17.86199 31.62024,-33.42097 32.02007,-34.57549 0.39983,-1.15453 -14.96224,-17.64865 -34.13793,-36.65359 l -34.8649,-34.55444 -35.56058,35.29444 -35.56058,35.29444 35.42664,35.46349 c 27.42164,27.45016 36.09972,35.09563 38.40541,33.83549 1.63832,-0.89538 17.06066,-16.24234 34.27187,-34.10434 z m -163.39973,-0.90422 c 0.96641,-4.98511 -2.68341,-7.89298 -6.22142,-4.95668 -2.19393,1.82079 -2.40966,3.28346 -0.90025,6.10383 2.31331,4.32245 6.18215,3.69926 7.12167,-1.14715 z m 259.44729,1.75689 c 1.6504,-4.30087 -2.95765,-9.10664 -6.17314,-6.43804 -1.85929,1.54307 -2.03051,3.09601 -0.6299,5.71306 2.31603,4.32753 5.29864,4.64538 6.80304,0.72498 z m -275.2717,-19.07345 c 0,-1.98499 -1.49612,-3.89721 -3.3247,-4.24936 -4.20135,-0.80911 -6.70142,5.11864 -3.11545,7.38684 3.75812,2.37708 6.44015,1.07047 6.44015,-3.13748 z m 33.18966,3.13202 c 0,-3.77856 -2.42711,-7.74133 -4.74138,-7.74133 -3.38586,0 -4.89199,4.78043 -2.31732,7.3551 2.56541,2.5654 7.0587,2.81125 7.0587,0.38623 z m 225.48082,-0.85176 c 1.62777,-1.96136 1.51463,-3.12231 -0.46443,-4.76477 -1.99909,-1.65912 -3.16204,-1.51432 -4.92803,0.61356 -2.29227,2.762 -1.29561,6.7444 1.68789,6.7444 0.85383,0 2.52088,-1.16693 3.70457,-2.59319 z m 33.51097,0.51465 c 1.8824,-3.04579 -4.30897,-8.70774 -6.79904,-6.21766 -1.08475,1.08475 -1.42627,3.39515 -0.75891,5.13423 1.37665,3.58754 5.63322,4.1977 7.55795,1.08343 z M 179.55032,207.0528 c 3.20729,-2.42884 3.26619,-2.97274 0.60961,-5.62933 -3.68813,-3.68812 -5.90024,-3.71195 -8.90131,-0.0959 -1.88363,2.26963 -1.88363,3.42002 0,5.68965 2.87426,3.46327 3.76041,3.46707 8.2917,0.0355 z m 192.2706,-6.06193 c -2.9777,-2.97769 -3.25977,-2.97769 -4.40241,0 -0.67149,1.74985 -0.67149,4.61324 0,6.36308 1.14264,2.9777 1.42471,2.9777 4.40241,0 2.9777,-2.97768 2.9777,-3.38539 0,-6.36308 z m 33.77432,1.46699 c -1.54946,-2.50709 -3.03144,-2.5736 -6.62846,-0.2975 -2.29464,1.45198 -2.32026,2.20808 -0.16292,4.80751 2.2397,2.69868 2.90499,2.73953 5.31797,0.32655 1.51692,-1.51691 2.17996,-3.69336 1.47341,-4.83656 z m -291.44201,2.91446 c 1.63412,-1.96899 1.48176,-3.14958 -0.63297,-4.90465 -3.47695,-2.88562 -6.7444,-1.03656 -6.7444,3.81667 0,4.25409 4.23179,4.87818 7.37737,1.08798 z m 31.39617,0.86779 c 0.58649,-0.94897 0.55155,-3.06696 -0.0777,-4.70664 -0.89259,-2.32607 -1.96284,-2.54302 -4.86998,-0.98716 -2.97288,1.59103 -3.27096,2.54235 -1.47475,4.70664 2.58559,3.11545 4.88829,3.46939 6.42239,0.98716 z m 294.18378,-0.35314 c 0.70654,-1.1432 -0.0537,-3.41687 -1.68945,-5.0526 -2.46104,-2.46105 -3.48522,-2.54982 -5.93744,-0.51465 -2.25825,1.87417 -2.45128,3.07648 -0.81125,5.0526 2.59088,3.1218 6.67296,3.37076 8.43814,0.51465 z m -310.31397,-19.8707 c -1.13223,-1.36425 -3.27638,-2.01316 -4.76477,-1.44201 -3.29016,1.26256 -3.42597,2.94731 -0.47543,5.89785 3.22584,3.22584 8.14439,-0.9565 5.2402,-4.45584 z m 32.2877,4.01508 c 2.60625,-3.14034 1.12738,-6.72101 -2.77587,-6.72101 -3.41287,0 -5.35532,3.25076 -4.02069,6.72876 1.3472,3.51075 3.87886,3.50787 6.79656,-0.008 z m 63.1188,-28.3563 c 29.55871,-29.71977 37.66787,-39.48607 35.00071,-42.15324 -0.66443,-0.66441 -3.58166,0.31179 -6.48275,2.16934 -6.29383,4.02992 -55.9786,52.71271 -61.50444,60.2641 -3.75383,5.12982 -3.67405,10.83785 0.15147,10.83785 1.03708,0 15.81284,-14.00312 32.83501,-31.11805 z m 164.32753,28.52486 c 1.63957,-1.97557 1.44988,-3.17604 -0.79644,-5.04031 -3.6249,-3.00839 -7.6699,0.16363 -5.94402,4.66119 1.40478,3.6608 3.90041,3.80117 6.74046,0.37912 z m 32.0709,0.31733 c 3.01411,-3.01411 2.90377,-7.2069 -0.18966,-7.2069 -3.64249,0 -6.86718,3.87392 -5.71785,6.86904 1.23325,3.21379 2.9343,3.31107 5.90751,0.33786 z m -64.10345,-1.59849 c 0,-3.87472 -64.49277,-68.7004 -69.42354,-69.78189 -6.99441,-1.53412 5.02374,13.35977 33.7696,41.85013 27.39837,27.15483 35.65394,33.62235 35.65394,27.93176 z m -210.9092,-15.16831 c 2.67351,-4.28097 1.5996,-7.50906 -2.49807,-7.50906 -3.9415,0 -6.92782,6.49249 -4.2281,9.19221 3.01085,3.01085 3.93991,2.77837 6.72617,-1.68315 z m 64.67321,-32.96132 c 19.5639,-19.66796 34.19572,-35.83215 33.48143,-36.98789 -2.10447,-3.40512 -6.11499,-0.0993 -39.44371,32.51265 -22.00344,21.53025 -31.76725,32.36362 -31.76725,35.24717 0,2.2897 0.67036,4.16309 1.48968,4.16309 0.81931,0 17.12725,-15.72076 36.23985,-34.93502 z m 161.4084,32.21376 c 0,-3.33412 -32.21632,-38.13789 -51.97456,-56.14891 -13.71563,-12.50275 -20.0944,-15.98193 -20.0944,-10.96011 0,2.84826 67.09031,69.83028 69.94318,69.83028 1.16918,0 2.12578,-1.22457 2.12578,-2.72126 z m 33.7957,-2.64281 c 0.64612,-4.39102 -0.8712,-5.0936 -5.14965,-2.38451 -3.17642,2.01131 -1.26481,8.41607 2.17393,7.2836 1.30332,-0.42922 2.6424,-2.63381 2.97572,-4.89909 z m -16.72673,-14.2911 c 0,-3.22972 -7.28934,-11.77912 -26.07759,-30.58543 -32.07397,-32.104811 -41.65165,-40.202571 -44.35384,-37.500382 -2.09252,2.092513 1.43702,6.091702 43.87971,49.718402 11.99569,12.33034 22.87715,22.51585 24.18103,22.63448 1.30388,0.11863 2.37069,-1.80156 2.37069,-4.26707 z M 194.47558,124.83803 c 18.52377,-18.59943 33.67959,-34.814942 33.67959,-36.034482 0,-6.190481 -8.55891,0.680693 -38.875,31.209222 -30.80815,31.02404 -36.88808,38.6424 -30.83908,38.6424 1.29519,0 17.51071,-15.21771 36.03449,-33.81714 z m 82.093,-15.57628 c 1.26504,-2.04685 -2.24155,-7.50313 -4.82203,-7.50313 -2.02997,0 -4.00668,5.65886 -2.70974,7.75736 1.44513,2.33827 6.02508,2.18368 7.53177,-0.25423 z m 16.14834,-16.132797 c 2.01562,-2.428671 1.89109,-3.488929 -0.71604,-6.09606 -2.94369,-2.943695 -3.36841,-2.943695 -6.3121,0 -2.60714,2.607131 -2.73166,3.667389 -0.71605,6.09606 1.342,1.617005 3.08444,2.940011 3.8721,2.940011 0.78766,0 2.53009,-1.323006 3.87209,-2.940011 z m -33.16651,-1.018342 c 0.70084,-1.133992 0.4672,-2.868867 -0.51921,-3.855278 -2.56891,-2.568904 -8.07487,0.02805 -6.84647,3.229209 1.22092,3.18167 5.55838,3.550345 7.36568,0.626069 z M 243.11875,76.406804 c 1.62101,-1.953198 1.54561,-3.096591 -0.30552,-4.632893 -3.27837,-2.7208 -7.94882,0.308636 -6.45946,4.189851 1.42772,3.720574 3.90996,3.883135 6.76498,0.443042 z m 32.51692,-0.332012 c 1.84741,-2.225994 1.89968,-3.45323 0.21869,-5.134237 -2.71364,-2.713624 -9.06991,2.689637 -7.0358,5.980897 1.77467,2.871486 3.95618,2.60055 6.81711,-0.84666 z M 309.7069,74.25862 c 0,-3.428956 -1.01896,-4.74138 -3.68117,-4.74138 -4.8411,0 -6.7045,3.264774 -3.8361,6.72101 3.60049,4.338313 7.51727,3.30685 7.51727,-1.97963 z M 259.15476,61.456896 c 3.12582,-3.249613 2.6363,-8.201965 -0.73446,-7.43033 -5.34294,1.223109 -7.72726,4.404994 -5.40112,7.207824 2.64644,3.18876 3.26089,3.211042 6.13558,0.222506 z m 33.2345,-2.071052 c 3.69952,-4.457663 -1.76105,-6.776154 -7.33753,-3.115424 -2.52873,1.660008 -2.52873,2.075012 0,3.73502 3.78271,2.483193 4.83628,2.394228 7.33753,-0.619596 z M 276.04219,38.887029 c -3.39765,-3.397653 -8.9442,1.675471 -5.87505,5.37358 1.91761,2.310578 2.64242,2.277121 5.15763,-0.238086 2.22695,-2.226952 2.39843,-3.454489 0.71742,-5.135494 z"
     id="path4773"
     inkscape:connector-curvature="0" />
  <path
     style="fill:#2d3c49;fill-opacity:1;stroke-width:1.89655173"
     d="m 260.45473,381.02495 c -4.66196,-4.95423 -8.50248,-9.6478 -8.53448,-10.43012 -0.032,-0.78233 -0.83948,-1.63578 -1.79441,-1.89656 C 246.3352,367.6631 87.108474,208.12894 86.633072,204.88983 c -0.34888,-2.37707 24.351528,-28.3463 78.520228,-82.55368 43.46607,-43.497111 79.47695,-78.936414 80.02417,-78.754008 0.54722,0.182409 1.2328,-0.521798 1.5235,-1.564902 1.22597,-4.398962 22.39658,-23.706896 25.99394,-23.706896 4.41618,0 186.83957,181.417126 186.83957,185.808936 0,4.27795 -182.46874,185.83481 -186.81034,185.87676 -2.10291,0.0203 -7.57011,-3.97717 -12.26941,-8.97109 z m 16.11385,-11.93561 c 0.67292,-1.08881 0.15647,-3.26525 -1.14756,-4.83656 -2.07443,-2.49954 -2.71607,-2.51191 -5.12906,-0.099 -1.51691,1.51692 -2.17994,3.69336 -1.4734,4.83656 1.62846,2.6349 6.14706,2.69258 7.75002,0.099 z m 16.06935,-17.93417 c 0,-3.67068 -3.72314,-5.56996 -6.15383,-3.13927 -1.44262,1.44262 -1.33258,2.87085 0.38014,4.93457 2.67368,3.22157 5.77369,2.25765 5.77369,-1.7953 z m -33.18965,-0.97426 c 0,-4.06526 -5.51075,-3.47808 -6.31005,0.67235 -0.48811,2.53455 0.28431,3.30696 2.81885,2.81886 1.92016,-0.36979 3.4912,-1.94083 3.4912,-3.49121 z m -16.32953,-13.94652 c 1.63958,-1.97556 1.44989,-3.17604 -0.79643,-5.04031 -3.62489,-3.00839 -7.66989,0.16367 -5.94401,4.66119 1.40478,3.6608 3.90039,3.80117 6.74044,0.37912 z m 32.65808,-3.64722 c -1.0172,-1.0172 -3.2831,-1.29931 -5.03536,-0.6269 -2.59923,0.99741 -2.75099,1.74659 -0.82412,4.06831 1.83309,2.20876 2.96026,2.34909 5.03535,0.6269 1.737,-1.44157 2.02569,-2.86675 0.82413,-4.06831 z m 33.5961,1.81028 c 0.78165,-4.0304 -5.19112,-6.49104 -7.33516,-3.02191 -1.8465,2.9877 1.48316,7.93312 4.63482,6.88391 1.14731,-0.38196 2.36247,-2.11985 2.70034,-3.862 z m -82.06986,-14.69099 c 1.40423,-2.27209 -65.31468,-70.01681 -68.95659,-70.01681 -1.24315,0 -2.26027,1.05817 -2.26027,2.35146 0,2.42061 66.23586,69.71751 68.61831,69.71751 0.73163,0 1.90098,-0.92347 2.59855,-2.05216 z m 32.14521,-1.87302 c 0,-1.46344 -1.49354,-2.94844 -3.31897,-3.29998 -3.26916,-0.62958 -4.62065,3.39473 -2.01508,6.00031 1.98797,1.98797 5.33405,0.29406 5.33405,-2.70033 z m 32.98082,1.33199 c 1.62778,-1.96136 1.51463,-3.12232 -0.46442,-4.76477 -1.9991,-1.65912 -3.16205,-1.51432 -4.92804,0.61356 -2.29227,2.762 -1.29561,6.7444 1.68789,6.7444 0.85383,0 2.52088,-1.16693 3.70457,-2.59319 z m 68.01056,-33.89982 c 27.31899,-27.59432 33.09879,-35.57596 25.76188,-35.57596 -3.06623,0 -58.8858,55.20811 -64.53163,63.82474 -4.15058,6.33457 -1.35107,9.06009 4.76497,4.639 2.79529,-2.02063 18.09745,-16.82014 34.00478,-32.88778 z m -83.80993,13.91638 c -1.62848,-2.6349 -6.14707,-2.69257 -7.75004,-0.099 -0.67291,1.08881 -0.1565,3.26526 1.14757,4.83657 2.07443,2.49954 2.71607,2.51191 5.12906,0.099 1.51691,-1.51692 2.17995,-3.69336 1.47341,-4.83657 z m -33.30214,3.36494 c 0,-2.43441 -61.76145,-65.49324 -66.85345,-68.25777 -2.53116,-1.37422 -3.31897,-1.07897 -3.31897,1.24384 0,3.58091 64.31942,69.2038 67.80173,69.17575 1.30388,-0.0114 2.37069,-0.98332 2.37069,-2.16182 z m 97.12647,-31.72229 c 18.55457,-18.62577 33.7356,-34.84129 33.7356,-36.03449 0,-1.19321 -1.0597,-2.16946 -2.35489,-2.16946 -2.98317,0 -69.71408,66.86257 -69.71408,69.85163 0,5.6056 6.88452,-0.0781 38.33337,-31.64768 z M 323.6108,255.54482 c 31.41938,-31.85304 36.56914,-38.09655 31.42285,-38.09655 -3.50348,0 -29.67476,24.43582 -49.41107,46.13457 -16.79353,18.46335 -21.71903,25.9344 -17.09798,25.9344 0.86699,0 16.65578,-15.28759 35.0862,-33.97242 z m -63.21425,29.76528 c 0,-3.6083 -65.15138,-67.86183 -68.8101,-67.86183 -1.79237,0 -3.25886,1.13227 -3.25886,2.51612 0,2.34217 58.53922,62.03784 64.59043,65.86643 3.87038,2.44877 7.47853,2.19755 7.47853,-0.52072 z m 48.29829,-46.9359 34.03463,-34.07406 -4.61079,-5.27938 c -2.53591,-2.90366 -18.10643,-18.79857 -34.60114,-35.32201 -26.43103,-26.47707 -30.35873,-29.74086 -33.09389,-27.5 -7.53574,6.17389 -66.92365,66.12292 -66.92365,67.55598 0,2.13946 67.29663,68.69354 69.45998,68.69354 0.93513,0 17.01582,-15.33333 35.73486,-34.07407 z m -163.28899,-3.43501 c -2.62305,-4.15842 -5.25269,-3.97138 -6.10108,0.43395 -0.78616,4.08217 3.61952,7.37498 6.29192,4.70259 1.22867,-1.22868 1.16323,-2.98989 -0.19084,-5.13654 z m 260.38827,0.65381 c -1.37438,-3.58156 -6.94929,-3.98812 -6.94929,-0.50679 0,1.35603 1.02414,3.48965 2.27586,4.74138 2.88815,2.88814 6.24091,-0.14983 4.67343,-4.23459 z M 129.41921,218.25765 c -1.13223,-1.36425 -3.27638,-2.01315 -4.76477,-1.44201 -3.29016,1.26256 -3.42597,2.9473 -0.47543,5.89786 3.22584,3.22583 8.14439,-0.95651 5.2402,-4.45585 z m 33.35627,4.79721 c 0.67292,-1.08881 0.18333,-3.23296 -1.08797,-4.76478 -1.76599,-2.12788 -2.92894,-2.27268 -4.92804,-0.61356 -1.97905,1.64246 -2.09221,2.80341 -0.46442,4.76477 2.57172,3.09874 4.81334,3.31098 6.48043,0.61357 z m 226.30924,-0.53101 c 1.51931,-1.83067 1.49169,-3.10261 -0.10204,-4.69626 -2.81933,-2.81934 -7.41608,0.66187 -5.94297,4.50072 1.29673,3.37926 3.34762,3.44558 6.04493,0.19554 z m 33.57949,0.43209 c 0.70654,-1.14321 -0.12745,-3.49019 -1.85322,-5.21552 -2.71912,-2.71838 -3.36727,-2.76586 -4.85729,-0.35576 -1.06947,1.72983 -0.95575,3.70149 0.30081,5.21552 2.4753,2.98256 4.70959,3.10657 6.4097,0.35576 z M 178.92383,206.92205 c 2.01005,-2.42197 1.91595,-3.46404 -0.53406,-5.91406 -3.44506,-3.44505 -7.13115,-1.9149 -7.13115,2.96026 0,6.21356 3.75799,7.66171 7.66521,2.9538 z m -65.51004,-2.88171 c 0,-1.46344 -1.49353,-2.94844 -3.31896,-3.29998 -3.26916,-0.62959 -4.62065,3.39474 -2.01509,6.00031 1.98798,1.98796 5.33405,0.29406 5.33405,-2.70033 z m 32.34352,1.86337 c 1.84135,-2.97937 -1.76122,-5.86037 -5.52306,-4.41681 -2.49351,0.95685 -2.72422,1.81771 -1.03319,3.85527 2.61882,3.15548 4.83575,3.34536 6.55625,0.56154 z m 227.48407,-1.86337 c 0,-1.46344 -1.49353,-2.94844 -3.31896,-3.29998 -3.26917,-0.62959 -4.62065,3.39474 -2.01509,6.00031 1.98798,1.98796 5.33405,0.29406 5.33405,-2.70033 z m 32.24138,0.10609 c 0,-4.06527 -5.51075,-3.47809 -6.31006,0.67235 -0.48809,2.53455 0.28432,3.30696 2.81887,2.81886 1.92014,-0.36979 3.49119,-1.94084 3.49119,-3.49121 z m 34.18927,1.83945 c 0.67292,-1.0888 0.20695,-3.20448 -1.0355,-4.70153 -1.70039,-2.04886 -3.1779,-2.23009 -5.97537,-0.73293 -2.96486,1.58674 -3.26116,2.53751 -1.46518,4.70153 2.64338,3.18507 6.74154,3.53944 8.47605,0.73293 z M 130.34995,186.88855 c -1.29435,-2.09429 -8.40167,-2.23338 -8.40167,-0.16441 0,0.83448 1.00383,2.52107 2.23073,3.74797 2.53179,2.53179 7.99108,-0.63851 6.17094,-3.58356 z m 31.49262,2.97935 c 1.78571,-2.15165 1.86838,-3.48454 0.3126,-5.04031 -2.78463,-2.78464 -8.16734,1.43966 -6.70159,5.25935 1.34206,3.49735 3.36213,3.4281 6.38899,-0.21904 z m 65.0441,-31.04722 c 18.43043,-18.68483 33.50988,-34.84998 33.50988,-35.92255 0,-4.25817 -3.77928,-3.84478 -9.79631,1.07153 -9.53812,7.7933 -55.89707,54.63418 -59.47211,60.09037 -2.92754,4.468 -2.54452,8.73307 0.78426,8.73307 0.80542,0 16.54384,-15.28759 34.97428,-33.97242 z m 162.26657,31.37923 c 1.63957,-1.97557 1.44988,-3.17604 -0.79644,-5.04031 -3.6249,-3.00839 -7.6699,0.16363 -5.94402,4.66119 1.40478,3.6608 3.90041,3.80117 6.74046,0.37912 z m 32.84306,-5.35878 c -3.11004,-3.11005 -7.04133,0.82123 -5.31637,5.31638 1.18627,3.09138 1.47817,3.10066 4.43779,0.14103 2.47442,-2.47441 2.66676,-3.66923 0.87858,-5.45741 z m -64.87561,3.83808 c 0,-3.00982 -67.82167,-70.938 -69.32539,-69.43428 -3.00706,3.00707 3.31978,10.76932 32.71106,40.13243 29.17475,29.1468 36.61433,35.10057 36.61433,29.30185 z m -210.6626,-19.76815 c -2.63617,-3.17639 -7.44085,-1.29943 -7.44085,2.90679 0,5.10984 2.21942,6.09853 6.00319,2.67427 2.54815,-2.30604 2.92892,-3.78421 1.43766,-5.58106 z m 63.31944,-27.06679 c 31.56266,-31.87293 36.7398,-38.1891 31.30222,-38.1891 -3.65979,0 -67.92458,64.97865 -67.92458,68.6791 0,1.86443 0.69127,3.38987 1.53615,3.38987 0.84488,0 16.63367,-15.24594 35.08621,-33.87987 z m 162.51557,30.76744 c 0,-3.55645 -64.3752,-68.95654 -67.87593,-68.95654 -1.26307,0 -2.29648,1.32824 -2.29648,2.95165 0,3.23721 65.00166,69.11732 68.19571,69.11732 1.08718,0 1.9767,-1.4006 1.9767,-3.11243 z m 33.50102,0.14012 c 1.68444,-4.38959 -2.04293,-7.29222 -4.91708,-3.82908 -2.42971,2.92761 -1.32912,6.80139 1.93234,6.80139 1.01428,0 2.35741,-1.33754 2.98474,-2.97231 z m -17.21728,-19.27261 c -1.36024,-4.28573 -58.8416,-61.462705 -65.11994,-64.775108 -9.18726,-4.847124 -4.03763,3.943316 12.32758,21.043208 34.5067,36.0558 50.34945,50.99805 52.15605,49.19147 0.98909,-0.98909 1.27543,-3.44589 0.63631,-5.45957 z M 194.41957,124.79015 c 18.55458,-18.62576 33.7356,-34.84128 33.7356,-36.034482 0,-5.555856 -6.98802,0.194089 -38.34671,31.552782 -31.55449,31.55449 -37.12041,38.34672 -31.42337,38.34672 1.26438,0 17.4799,-15.23926 36.03448,-33.86502 z m 82.21016,-15.62732 c 1.8824,-3.04578 -4.30897,-8.70773 -6.79905,-6.21765 -1.08475,1.08475 -1.42626,3.39515 -0.75891,5.13424 1.37666,3.58752 5.63322,4.19769 7.55796,1.08341 z m 16.08719,-16.033877 c 2.01006,-2.421973 1.91596,-3.46405 -0.53405,-5.914065 -3.44506,-3.445056 -7.13114,-1.914899 -7.13114,2.960258 0,6.213568 3.75797,7.661716 7.66519,2.953807 z m -33.26864,-2.775617 c 0,-4.06527 -5.51075,-3.478094 -6.31005,0.672343 -0.48811,2.534544 0.28431,3.306962 2.81885,2.818854 1.92016,-0.369788 3.4912,-1.940827 3.4912,-3.491197 z M 243.30896,76.177613 c 1.90198,-2.291742 1.74338,-3.052238 -0.84353,-4.044931 -3.7367,-1.433907 -7.72093,1.823428 -5.8779,4.805515 1.75012,2.831762 3.9463,2.583247 6.72143,-0.760584 z m 32.32671,-0.102812 c 1.78572,-2.151653 1.86839,-3.484548 0.31261,-5.040319 -2.78463,-2.784635 -8.16735,1.439668 -6.7016,5.259352 1.34206,3.497355 3.36213,3.428099 6.38899,-0.219042 z m 33.73726,-1.504929 c 0.74577,-3.845387 -4.80151,-6.365419 -7.67866,-3.488278 -1.49297,1.492967 -1.37836,2.898955 0.41214,5.056372 2.96164,3.56855 6.41486,2.823355 7.26652,-1.568094 z M 260.39655,56.957431 c 0,-3.059597 -4.90632,-3.517853 -6.69406,-0.625233 -0.67554,1.093055 -0.71581,3.322795 -0.0895,4.954977 0.92039,2.398484 1.68005,2.518389 3.96117,0.625232 1.5523,-1.288303 2.82237,-3.518042 2.82237,-4.954976 z m 31.9063,0.549201 c 0.35479,-1.829362 -0.59709,-3.161805 -2.25876,-3.161805 -3.52328,0 -5.64975,3.091658 -3.98222,5.789766 1.7155,2.775723 5.50223,1.181195 6.24098,-2.627961 z M 275.96182,38.806649 c -3.11004,-3.11005 -7.04133,0.821228 -5.31637,5.316378 1.18627,3.091381 1.47817,3.100657 4.43779,0.141028 2.47441,-2.474412 2.66676,-3.669228 0.87858,-5.457406 z"
     id="path4775"
     inkscape:connector-curvature="0" />
  <path
     style="fill:#2d3c49;fill-opacity:1;stroke-width:1.89655173"
     d="m 260.49002,380.98452 c -4.64256,-4.93201 -8.26971,-9.60737 -8.06034,-10.38969 0.20936,-0.78233 -0.38744,-1.20906 -1.32623,-0.94828 -0.93879,0.26078 -1.91563,-0.37931 -2.17075,-1.42241 -0.25512,-1.04311 -2.68744,-3.61348 -5.40517,-5.71196 C 232.43276,353.9454 87.058769,207.79029 86.613248,204.75476 85.947519,200.21886 267.51589,18.336622 272.72414,18.322145 c 4.45756,-0.01239 186.82305,181.492175 186.78857,185.906775 -0.034,4.36022 -182.61409,185.81281 -186.91847,185.76422 -2.01476,-0.0228 -7.46166,-4.07664 -12.10422,-9.00862 z m 16.12935,-11.97735 c 1.78456,-2.88748 -2.09078,-6.25878 -5.63233,-4.89976 -1.70388,0.65385 -2.46969,2.35479 -1.82112,4.04494 1.29439,3.37311 5.5924,3.86605 7.45345,0.85482 z M 259.55041,351.9382 c 1.95443,-3.16235 -2.44126,-6.78873 -5.05757,-4.17241 -2.18848,2.18847 -0.81878,6.23421 2.11061,6.23421 0.91998,0 2.24611,-0.92781 2.94696,-2.0618 z m 33.08752,-0.67109 c 0,-3.70803 -3.67622,-5.72882 -6.06896,-3.33608 -1.06994,1.06994 -1.37195,2.87317 -0.6711,4.00717 1.85902,3.00797 6.74006,2.52198 6.74006,-0.67109 z M 243.44755,335.8382 c 2.05611,-2.47744 2.01468,-3.28441 -0.24191,-4.71232 -5.11004,-3.23351 -8.41712,-0.78129 -6.31923,4.68573 1.46377,3.81452 3.4109,3.82241 6.56114,0.0266 z m 65.62243,0.0171 c 1.48422,-3.86783 -2.05429,-7.3391 -5.95533,-5.84214 -2.42447,0.93038 -2.63248,1.95973 -1.00902,4.99321 2.44765,4.57349 5.39713,4.93302 6.96435,0.84893 z m -33.50101,-1.76906 c 0,-1.56466 -1.2298,-2.84483 -2.7329,-2.84483 -3.16846,0 -5.30732,2.70691 -3.53738,4.47685 2.26667,2.26668 6.27028,1.22462 6.27028,-1.63202 z m -49.64542,-15.47103 c -1.18347,-6.06682 -63.14023,-68.92553 -67.93652,-68.92553 -1.04545,0 -1.90082,0.96958 -1.90082,2.15462 0,2.5201 66.29628,69.91435 68.77533,69.91435 0.92136,0 1.39927,-1.41454 1.06201,-3.14344 z m 33.62686,1.08164 c 1.95443,-3.16235 -2.44126,-6.78872 -5.05757,-4.17241 -2.18848,2.18847 -0.81878,6.23421 2.11061,6.23421 0.91998,0 2.24611,-0.92781 2.94696,-2.0618 z m 32.4506,-0.91051 c 1.49473,-3.89522 -1.50533,-6.80631 -4.87082,-4.72632 -2.8662,1.77141 -1.5461,7.69863 1.71464,7.69863 1.10857,0 2.52886,-1.33754 3.15618,-2.97231 z m 68.43865,-33.69494 c 27.25069,-27.76804 32.86064,-35.40172 26.01653,-35.40172 -3.03581,0 -53.30038,49.37506 -62.371,61.26725 -6.33001,8.29907 -4.97506,12.47294 2.34969,7.23817 2.79529,-1.99769 18.09745,-16.89436 34.00478,-33.1037 z m -82.97414,15.51343 c 0,-3.00941 -6.00628,-4.16118 -7.66913,-1.47064 -2.36317,3.82371 1.72381,8.12868 5.07594,5.34666 1.42626,-1.18369 2.59319,-2.92789 2.59319,-3.87602 z m -34.13793,2.03942 c 0,-2.38527 -61.93364,-65.72549 -66.85345,-68.37177 -2.49789,-1.34357 -3.31897,-1.06165 -3.31897,1.13956 0,3.49546 64.38889,69.2913 67.80173,69.28324 1.30388,-0.004 2.37069,-0.92605 2.37069,-2.05103 z m 96.98394,-31.83269 c 31.91267,-31.91269 37.10395,-38.19084 31.57924,-38.19084 -2.91563,0 -69.77008,66.97847 -69.77008,69.8995 0,5.38285 6.4768,0.006 38.19084,-31.70866 z m -16.6338,-15.43977 c 31.35357,-32.01222 36.26825,-37.92349 31.52993,-37.92349 -4.05697,0 -45.02353,39.73231 -61.79863,59.93671 -6.31531,7.60635 -8.11246,12.13226 -4.8175,12.13226 0.9038,0 16.69259,-15.36546 35.0862,-34.14548 z m -63.28118,29.95245 c 0,-3.50073 -65.40009,-67.87594 -68.95654,-67.87594 -5.53461,0 -3.36198,3.90368 9.6893,17.40921 7.04095,7.286 16.21552,16.84923 20.38793,21.25164 4.17242,4.40239 13.32546,13.29348 20.3401,19.75795 12.16163,11.20783 18.53921,14.46112 18.53921,9.45714 z m 48.27883,-46.98299 33.91664,-34.10707 -3.62412,-4.29811 c -10.69782,-12.68727 -63.61613,-64.03949 -65.99251,-64.03949 -2.73123,0 -69.47539,65.55403 -69.47539,68.23656 0,1.89753 67.75464,68.31516 69.69035,68.31516 0.86263,0 16.83089,-15.34818 35.48503,-34.10705 z M 145.96653,235.593 c -1.37438,-3.58156 -6.94929,-3.98812 -6.94929,-0.50679 0,1.35603 1.02414,3.48965 2.27586,4.74138 2.88816,2.88814 6.24091,-0.14983 4.67343,-4.23459 z m 259.82759,0 c -1.37438,-3.58156 -6.94929,-3.98812 -6.94929,-0.50679 0,1.35603 1.02414,3.48965 2.27586,4.74138 2.88815,2.88814 6.24091,-0.14983 4.67343,-4.23459 z M 128.69494,217.69247 c -4.07046,-4.07045 -8.57283,0.0114 -4.89741,4.44019 1.91005,2.30147 3.03713,2.45892 5.1355,0.71743 2.31057,-1.9176 2.27712,-2.64241 -0.23809,-5.15762 z m 34.08054,5.36239 c 0.67292,-1.08881 0.18333,-3.23296 -1.08797,-4.76478 -1.76599,-2.12788 -2.92894,-2.27268 -4.92804,-0.61356 -1.97905,1.64246 -2.09221,2.80341 -0.46442,4.76477 2.57172,3.09874 4.81334,3.31098 6.48043,0.61357 z m 226.79445,-4.26079 c -1.01719,-1.0172 -3.2831,-1.29931 -5.03536,-0.62691 -2.59923,0.99742 -2.75099,1.74659 -0.82413,4.06831 1.83311,2.20877 2.96027,2.34909 5.03536,0.62691 1.737,-1.44157 2.02569,-2.86675 0.82413,-4.06831 z m 33.03314,4.26079 c 1.3156,-2.12867 -2.28376,-7.50314 -5.02494,-7.50314 -1.94326,0 -2.25304,6.36532 -0.39996,8.21839 1.83869,1.8387 4.0246,1.5505 5.4249,-0.71525 z M 178.92383,206.92205 c 2.01005,-2.42197 1.91595,-3.46404 -0.53406,-5.91406 -3.44506,-3.44505 -7.13115,-1.9149 -7.13115,2.96026 0,6.21356 3.75799,7.66171 7.66521,2.9538 z m -65.4079,-1.01834 c 1.95443,-3.16234 -2.44126,-6.78872 -5.05757,-4.17241 -2.18848,2.18848 -0.81879,6.23422 2.11061,6.23422 0.91998,0 2.24611,-0.92782 2.94696,-2.06181 z m 32.13924,-1.86337 c 0,-1.46344 -1.49353,-2.94844 -3.31896,-3.29998 -3.26916,-0.62959 -4.62065,3.39474 -2.01509,6.00031 1.98798,1.98796 5.33405,0.29406 5.33405,-2.70033 z m 227.68834,1.86337 c 1.95443,-3.16234 -2.44126,-6.78872 -5.05757,-4.17241 -2.18847,2.18848 -0.81878,6.23422 2.11061,6.23422 0.91998,0 2.24611,-0.92782 2.94696,-2.06181 z m 32.13925,-1.75727 c 0,-4.06527 -5.51075,-3.47809 -6.31006,0.67234 -0.48809,2.53455 0.28432,3.30696 2.81887,2.81886 1.92014,-0.36979 3.49119,-1.94083 3.49119,-3.4912 z m 33.80435,1.15967 c 1.27886,-3.33269 -0.24959,-4.9268 -4.7239,-4.9268 -3.39782,0 -4.72954,3.80492 -2.21263,6.32183 2.14686,2.14686 5.86425,1.39924 6.93653,-1.39503 z M 161.84257,189.8679 c 1.78571,-2.15165 1.86838,-3.48454 0.3126,-5.04031 -2.78463,-2.78464 -8.16734,1.43966 -6.70159,5.25935 1.34206,3.49735 3.36213,3.4281 6.38899,-0.21904 z m 65.07979,-31.13578 c 18.41081,-18.73354 33.47419,-34.94905 33.47419,-36.03448 0,-4.05654 -5.74102,-1.72978 -14.58292,5.91027 -10.62281,9.17889 -44.70603,43.40972 -52.19129,52.41734 -4.57356,5.50373 -5.41635,11.76785 -1.58328,11.76785 0.77501,0 16.47249,-15.32744 34.8833,-34.06098 z m 161.80279,31.08867 c 1.49473,-3.89522 -1.50533,-6.80631 -4.87082,-4.72633 -2.8662,1.77142 -1.5461,7.69864 1.71464,7.69864 1.10857,0 2.52886,-1.33754 3.15618,-2.97231 z m 32.945,0.0471 c 1.72505,-2.07855 1.84009,-3.51283 0.39748,-4.95544 -2.7152,-2.71519 -6.15384,-0.36861 -6.15384,4.19948 0,4.42921 2.44172,4.74988 5.75636,0.75597 z m -291.26838,-0.73684 c 0.60013,-0.97103 0.1829,-2.32683 -0.92717,-3.01289 -2.80684,-1.73472 -8.02634,0.53845 -6.58633,2.86844 1.48234,2.39847 6.06597,2.48659 7.5135,0.14445 z m 226.71892,-0.34265 c 0,-2.36049 -66.37743,-69.96081 -68.69523,-69.96081 -5.67748,0 2.74902,10.56748 31.25485,39.19602 30.28841,30.41881 37.44038,36.29559 37.44038,30.76479 z M 146.60345,171.84005 c 0,-1.91304 -0.75675,-3.94596 -1.68166,-4.51759 -2.49296,-1.54073 -6.49967,4.11526 -5.24024,7.39727 1.46268,3.8117 6.9219,1.54053 6.9219,-2.87968 z m 225.35457,0.88545 c -1.2445,-6.0858 -63.30052,-69.07033 -68.0521,-69.07033 -5.71386,0 1.74042,9.22047 31.43562,38.88378 18.27148,18.25185 34.12286,33.18519 35.22529,33.18519 1.10242,0 1.72846,-1.34939 1.39119,-2.99864 z m 33.52474,-1.74274 c 0,-1.91236 -0.96167,-3.79757 -2.13702,-4.18935 -2.49792,-0.83265 -5.0331,4.63873 -3.38498,7.30544 1.76626,2.85788 5.522,0.73851 5.522,-3.11609 z m -194.7131,-30.18741 c 30.57907,-31.02456 35.59344,-37.14018 30.45225,-37.14018 -4.11559,0 -68.06674,64.288 -68.06674,68.42527 0,5.36267 8.28434,-1.52766 37.61449,-31.28509 z m -10.48862,-21.84039 c 15.40906,-15.78915 27.4978,-29.546772 26.86388,-30.572486 -1.87173,-3.028526 -9.45537,3.553946 -41.3454,35.887146 -16.51544,16.74495 -29.46696,31.35327 -28.78115,32.46293 1.89524,3.06656 12.08772,-5.83367 43.26267,-37.77759 z m 189.08103,36.68446 c 0,-3.43009 -40.69664,-45.74867 -57.76324,-60.065364 -12.81983,-10.75419 -16.14931,-9.174315 -6.16779,2.926684 11.84457,14.35966 58.45699,60.15443 61.22846,60.15443 1.48643,0 2.70257,-1.35709 2.70257,-3.01575 z M 276.62973,109.16283 c 0.70654,-1.1432 -0.12745,-3.49018 -1.85322,-5.21552 -2.71912,-2.71838 -3.36726,-2.76585 -4.8573,-0.35575 -1.06945,1.72983 -0.95574,3.70147 0.30081,5.21552 2.47531,2.98256 4.7096,3.10657 6.40971,0.35575 z m 16.17853,-16.143925 c 2.14851,-2.588787 1.99796,-3.440064 -0.99546,-5.628903 -4.13437,-3.02312 -6.76107,-1.941077 -6.76107,2.785144 0,6.279315 3.76091,7.658175 7.75653,2.843759 z m -33.25785,-0.908294 c 1.95443,-3.162347 -2.44126,-6.788726 -5.05757,-4.172414 -2.18848,2.188476 -0.81878,6.234216 2.11061,6.234216 0.91998,0 2.24611,-0.927812 2.94696,-2.061802 z M 243.30896,76.177613 c 1.90198,-2.291742 1.74338,-3.052238 -0.84353,-4.044931 -3.7367,-1.433907 -7.72093,1.823428 -5.8779,4.805515 1.75012,2.831762 3.9463,2.583247 6.72143,-0.760584 z m 32.32671,-0.102812 c 1.72505,-2.078543 1.84009,-3.512829 0.39748,-4.955437 -2.7152,-2.715206 -6.15384,-0.368625 -6.15384,4.19946 0,4.429215 2.44172,4.749878 5.75636,0.755968 z m 33.43431,-0.04709 c 1.48422,-3.867837 -2.05429,-7.339107 -5.95533,-5.842142 -2.42447,0.930363 -2.63248,1.959722 -1.00902,4.993207 2.44765,4.573491 5.39713,4.933022 6.96435,0.848935 z m -48.67343,-19.07028 c 0,-3.059597 -4.90632,-3.517853 -6.69406,-0.625233 -0.67554,1.093055 -0.71581,3.322795 -0.0895,4.954977 0.92039,2.398484 1.68005,2.518389 3.96117,0.625232 1.5523,-1.288303 2.82237,-3.518042 2.82237,-4.954976 z m 31.9063,0.549201 c 0.35479,-1.829362 -0.59709,-3.161805 -2.25876,-3.161805 -3.52328,0 -5.64975,3.091658 -3.98222,5.789766 1.7155,2.775723 5.50223,1.181195 6.24098,-2.627961 z M 275.96182,38.806649 c -3.11004,-3.11005 -7.04133,0.821228 -5.31637,5.316378 1.18627,3.091381 1.47817,3.100657 4.43779,0.141028 2.47441,-2.474412 2.66676,-3.669228 0.87858,-5.457406 z"
     id="path4777"
     inkscape:connector-curvature="0" />
  <path
     style="fill:#2d3c49;fill-opacity:1;stroke-width:1.89655173"
     d="m 260.01643,380.62055 c -4.35642,-4.73182 -7.75996,-9.2434 -7.56342,-10.02572 0.19653,-0.78233 -0.28275,-1.22776 -1.06508,-0.98985 -0.78233,0.23792 -38.22156,-36.24699 -83.19829,-81.07759 C 110.91018,231.43405 86.580849,205.96728 86.971553,203.51217 87.785093,198.40004 268.49911,18.310344 272.81542,18.310344 c 4.3948,0 185.81625,180.799526 186.17293,185.534716 0.15324,2.03373 -35.12963,38.68033 -91.14602,94.669 -70.24636,70.21162 -92.38052,91.27662 -95.65055,91.0303 -2.34092,-0.17638 -7.81727,-4.19019 -12.17535,-8.92381 z m 16.60294,-11.61338 c 1.84303,-2.98208 -2.1412,-6.23943 -5.8779,-4.80552 -2.58691,0.99269 -2.74551,1.75319 -0.84353,4.04492 2.77513,3.34383 4.97131,3.59236 6.72143,0.7606 z M 259.55041,351.9382 c 1.95443,-3.16235 -2.44126,-6.78873 -5.05757,-4.17241 -2.18848,2.18847 -0.81878,6.23421 2.11061,6.23421 0.91998,0 2.24611,-0.92781 2.94696,-2.0618 z m 33.08752,-0.67109 c 0,-3.70803 -3.67622,-5.72882 -6.06896,-3.33608 -1.06994,1.06994 -1.37195,2.87317 -0.6711,4.00717 1.85902,3.00797 6.74006,2.52198 6.74006,-0.67109 z m -49.4118,-16.04305 c 2.21737,-4.14319 -1.31854,-6.62147 -5.63823,-3.95177 -2.10519,1.30109 -2.11741,2.09886 -0.0699,4.56591 3.13339,3.77552 3.37267,3.74977 5.70816,-0.61414 z m 65.84385,0.63121 c 1.5807,-4.11923 -2.43221,-7.99303 -5.30456,-5.12069 -2.42766,2.42766 -0.92372,8.09301 2.14837,8.09301 1.10858,0 2.52887,-1.33755 3.15619,-2.97232 z m -33.50101,-1.76906 c 0,-1.56466 -1.28018,-2.84483 -2.84483,-2.84483 -1.56466,0 -2.84483,1.28017 -2.84483,2.84483 0,1.56465 1.28017,2.84482 2.84483,2.84482 1.56465,0 2.84483,-1.28017 2.84483,-2.84482 z m -56.52258,-25.14517 c -10.51605,-12.54408 -58.59418,-59.25139 -60.99035,-59.25139 -1.08341,0 -1.96983,0.95681 -1.96983,2.12627 0,3.58156 68.58109,71.10189 69.58067,68.50443 0.50512,-1.3126 -2.4741,-6.43329 -6.62049,-11.37931 z m 40.50402,10.75578 c 1.95443,-3.16235 -2.44126,-6.78872 -5.05757,-4.17241 -2.18848,2.18847 -0.81878,6.23421 2.11061,6.23421 0.91998,0 2.24611,-0.92781 2.94696,-2.0618 z m 32.75244,-2.36261 c 0.35479,-1.82936 -0.59709,-3.1618 -2.25876,-3.1618 -3.52328,0 -5.64975,3.09167 -3.98222,5.78978 1.7155,2.77571 5.50223,1.18119 6.24098,-2.62798 z m 55.74732,-19.75662 c 23.2125,-22.63594 41.3119,-42.82862 41.3119,-46.08985 0,-4.84292 -6.64358,0.10165 -27.5549,20.50813 -25.19552,24.58726 -42.61751,43.44207 -42.61751,46.12249 0,5.3694 8.47817,-0.66472 28.86051,-20.54077 z m -104.72258,5.11261 c 0,-2.98518 -67.91288,-71.06467 -69.40364,-69.57392 -2.3388,2.33881 4.96755,10.9732 35.05144,41.42264 27.49634,27.83045 34.3522,33.44876 34.3522,28.15128 z m 33.29178,-0.0624 c 0.70085,-1.13401 0.36067,-2.97541 -0.75596,-4.09204 -2.36671,-2.36671 -8.52354,1.68274 -6.79956,4.47218 1.44353,2.33568 6.01933,2.10546 7.55552,-0.38014 z m 53.88026,-21.88867 c 27.14496,-26.17099 42.42093,-43.39129 41.34784,-46.61059 -0.80482,-2.41444 -49.17205,43.73323 -62.52515,59.65588 -14.19332,16.92457 -2.3247,9.61345 21.17731,-13.04529 z m -7.17758,-24.97717 c 29.46352,-30.10786 36.24258,-38.31369 31.65195,-38.31369 -5.10817,0 -68.02572,65.12228 -68.02572,70.40945 0,3.96594 7.94027,-3.04048 36.37377,-32.09576 z m -62.9255,29.58945 c 0,-1.24812 -14.87507,-17.03692 -33.05573,-35.08621 -29.77021,-29.55514 -39.01323,-36.85789 -39.01323,-30.82367 0,2.39506 37.79533,41.95429 54.72023,57.27399 11.63573,10.53217 17.34873,13.376 17.34873,8.63589 z m 48.26159,-46.99286 33.89939,-34.08971 -9.07853,-10.00511 c -17.74353,-19.55446 -58.88676,-58.45635 -61.28007,-57.94175 -1.33745,0.28757 -17.28991,15.39796 -35.44992,33.57866 -26.72901,26.75945 -32.69035,33.66846 -31.29689,36.27216 1.99201,3.7221 66.25267,66.27547 68.08435,66.27547 0.67225,0 16.47701,-15.34037 35.12167,-34.08972 z m -162.05469,-1.056 c 0,-3.02816 -5.04031,-5.96338 -6.95402,-4.04968 -0.60543,0.60543 -0.59541,2.41776 0.0223,4.0274 1.45448,3.7903 6.93176,3.80788 6.93176,0.0223 z m 259.82759,0.17145 c 0,-3.70802 -3.67622,-5.72882 -6.06897,-3.33607 -1.06994,1.06994 -1.37195,2.87316 -0.67109,4.00717 1.85901,3.00797 6.74006,2.52197 6.74006,-0.6711 z M 129.53448,220.18117 c 0,-2.78788 -4.04892,-3.74144 -6.30538,-1.48498 -1.71511,1.71511 2.53534,6.5479 4.62373,5.2572 0.92491,-0.57162 1.68165,-2.26913 1.68165,-3.77222 z m 33.18966,0.92813 c 0,-1.46343 -1.49354,-2.94843 -3.31897,-3.29998 -3.26915,-0.62958 -4.62064,3.39473 -2.01508,6.00031 1.98798,1.98797 5.33405,0.29406 5.33405,-2.70033 z m 226.63793,-0.92813 c 0,-2.78788 -4.04893,-3.74144 -6.30539,-1.48498 -1.71511,1.71511 2.53535,6.5479 4.62374,5.2572 0.92491,-0.57162 1.68165,-2.26913 1.68165,-3.77222 z m 32.80684,3.65568 c 0.65871,-0.65871 0.29516,-2.88396 -0.80788,-4.945 -2.36621,-4.42131 -6.64208,-1.60323 -4.81032,3.17032 1.1855,3.08935 3.55503,3.83784 5.6182,1.77468 z m -243.24508,-16.9148 c 2.01005,-2.42197 1.91595,-3.46404 -0.53406,-5.91406 -3.44506,-3.44505 -7.13115,-1.9149 -7.13115,2.96026 0,6.21356 3.75799,7.66171 7.66521,2.9538 z m -65.4079,-1.01834 c 1.95443,-3.16234 -2.44126,-6.78872 -5.05757,-4.17241 -2.18848,2.18848 -0.81879,6.23422 2.11061,6.23422 0.91998,0 2.24611,-0.92782 2.94696,-2.06181 z m 32.24138,0 c 1.95443,-3.16234 -2.44126,-6.78872 -5.05758,-4.17241 -2.18847,2.18848 -0.81878,6.23422 2.11062,6.23422 0.91998,0 2.24611,-0.92782 2.94696,-2.06181 z m 227.5862,0 c 1.95443,-3.16234 -2.44126,-6.78872 -5.05757,-4.17241 -2.18847,2.18848 -0.81878,6.23422 2.11061,6.23422 0.91998,0 2.24611,-0.92782 2.94696,-2.06181 z m 31.85352,-0.72228 c 1.33752,-3.48557 -2.21838,-5.90146 -4.83496,-3.28488 -2.0244,2.0244 -0.56832,6.06897 2.18488,6.06897 0.86995,0 2.06247,-1.25285 2.65008,-2.78409 z m 33.1403,-1.64031 c 0.41347,-2.13189 -0.66764,-3.16181 -3.31896,-3.16181 -2.16268,0 -3.93216,1.13793 -3.93216,2.52873 0,5.80866 6.14337,6.34501 7.25112,0.63308 z M 161.84257,189.8679 c 1.91531,-2.30781 1.93738,-3.40861 0.10454,-5.21552 -1.81886,-1.79314 -2.8998,-1.5092 -4.97956,1.30806 -4.37893,5.93172 0.16942,9.57735 4.87502,3.90746 z m 66.94244,-33.12147 c 17.38635,-17.85352 31.61154,-33.26225 31.61154,-34.24162 0,-3.54675 -5.48636,-1.65068 -12.72638,4.39818 -4.06758,3.39837 -18.65695,17.58304 -32.42082,31.52149 -18.19704,18.42786 -25.02521,26.59222 -25.02521,29.92236 0,3.85211 0.55204,4.28428 3.47466,2.72013 1.91107,-1.02277 17.69986,-16.46701 35.08621,-34.32054 z m 160.24198,31.62227 c 0.35479,-1.82936 -0.59709,-3.1618 -2.25876,-3.1618 -3.52328,0 -5.64975,3.09165 -3.98223,5.78976 1.71551,2.77573 5.50224,1.1812 6.24099,-2.62796 z m 32.96931,-3.52757 c -3.11004,-3.11005 -7.04133,0.82123 -5.31637,5.31638 1.18627,3.09138 1.47817,3.10066 4.43779,0.14103 2.47442,-2.47441 2.66676,-3.66923 0.87858,-5.45741 z m -292.46182,3.21059 c 0,-1.56465 -1.2298,-2.84482 -2.73289,-2.84482 -3.16847,0 -5.30733,2.7069 -3.53738,4.47684 2.26667,2.26668 6.27027,1.22463 6.27027,-1.63202 z m 227.58621,0.80606 c 0,-3.44305 -68.68445,-71.15402 -69.61265,-68.62599 -1.43889,3.91904 12.61736,19.60963 48.43799,54.06993 16.46505,15.83977 21.17466,19.07729 21.17466,14.55606 z M 145.7113,173.73677 c 0.67555,-1.09306 0.71582,-3.3228 0.0895,-4.95498 -0.92037,-2.39849 -1.68004,-2.51839 -3.96115,-0.62523 -1.55231,1.2883 -2.82239,3.51804 -2.82239,4.95497 0,3.0596 4.90633,3.51786 6.69406,0.62524 z m 223.7417,-4.90952 c -4.35475,-6.64619 -49.06743,-52.51567 -58.41114,-59.92235 -7.93151,-6.28723 -11.06731,-5.87457 -6.49609,0.85488 3.45615,5.08792 41.48597,43.88476 56.01794,57.14777 10.60882,9.68243 14.53054,10.52935 8.88929,1.9197 z m 36.64295,2.47249 c 0.35479,-1.82937 -0.59709,-3.16181 -2.25875,-3.16181 -3.52328,0 -5.64975,3.09166 -3.98223,5.78977 1.71551,2.77572 5.50224,1.18119 6.24098,-2.62796 z M 210.61207,140.71625 c 17.99353,-18.24334 32.71552,-34.04527 32.71552,-35.11539 0,-1.07013 -1.03342,-1.94569 -2.29649,-1.94569 -2.91038,0 -67.87593,65.09221 -67.87593,68.00826 0,5.68054 7.18898,-0.25904 37.4569,-30.94718 z m -9.20314,-22.99297 c 13.66733,-14.15259 24.84969,-27.00624 24.84969,-28.563672 0,-2.295899 -0.98897,-2.127477 -5.2268,0.89012 -9.5554,6.804049 -65.12752,64.880212 -63.9327,66.813472 1.71769,2.77928 16.07668,-9.90436 44.30981,-39.13992 z m 187.95314,37.94166 c 0,-3.28663 -54.65957,-59.025834 -63.11954,-64.366279 -7.36376,-4.64845 -8.48073,-2.243905 -2.39896,5.164341 10.11563,12.321928 60.70151,62.192168 63.08462,62.192168 1.33864,0 2.43388,-1.3456 2.43388,-2.99023 z m -113.22765,-45.6212 c 1.55406,-1.55405 -2.04118,-8.28512 -4.42528,-8.28512 -1.00641,0 -1.82983,1.56465 -1.82983,3.47701 0,5.12167 3.35933,7.70389 6.25511,4.80811 z m 15.97601,-16.102432 c 2.94672,-2.946735 0.86784,-7.355102 -3.46851,-7.355102 -2.21703,0 -3.59019,1.329871 -3.59019,3.477011 0,5.836357 3.29186,7.644924 7.0587,3.878091 z m -32.56002,-1.830697 c 1.95443,-3.162347 -2.44126,-6.788726 -5.05757,-4.172414 -2.18848,2.188476 -0.81878,6.234216 2.11061,6.234216 0.91998,0 2.24611,-0.927812 2.94696,-2.061802 z M 242.67313,76.073377 c 1.43102,-3.729161 -0.26234,-5.441372 -3.97315,-4.017399 -1.66686,0.639633 -2.41993,2.347895 -1.77544,4.027401 1.43774,3.746684 4.30893,3.741688 5.74859,-0.01005 z m 33.01579,-0.06276 c 2.05177,-2.47221 2.02558,-3.270823 -0.15134,-4.616239 -3.46841,-2.143582 -5.65827,-0.624745 -5.65827,3.924443 0,4.453682 2.44583,4.744926 5.80961,0.691802 z m 33.0697,-1.884072 c 0,-1.984998 -1.49353,-3.896714 -3.31896,-4.248259 -3.33778,-0.642798 -4.80499,5.106957 -2.01509,7.896854 2.24062,2.240632 5.33405,0.12468 5.33405,-3.648595 z M 260.07287,57.469781 c 0.48251,-2.505505 -0.29577,-3.283785 -2.80127,-2.80127 -1.90818,0.367483 -3.77009,2.229387 -4.13757,4.137568 -0.48251,2.505505 0.29577,3.283785 2.80127,2.80127 1.90818,-0.367483 3.77009,-2.229387 4.13757,-4.137568 z m 32.22998,0.03685 c 0.35479,-1.829361 -0.59709,-3.161804 -2.25876,-3.161804 -3.52328,0 -5.64975,3.091658 -3.98222,5.789766 1.7155,2.775723 5.50223,1.181195 6.24098,-2.627962 z m -15.78561,-16.46364 c 0,-4.06527 -5.51075,-3.478094 -6.31005,0.672343 -0.48811,2.534544 0.28431,3.306962 2.81886,2.818854 1.92015,-0.369787 3.49119,-1.940826 3.49119,-3.491197 z"
     id="path4779"
     inkscape:connector-curvature="0" />
</svg>
